<svg width="64" height="64" viewBox="0 0 64 64" fill="currentColor" xmlns="http://www.w3.org/2000/svg">
  <path d="M33.8728 38.5355C32.9717 36.9746 30.6491 36.9744 29.7479 38.5355L19.41 56.4411C18.5073 58.0046 19.6733 60.0134 21.4725 60.0134H42.1482C43.9473 60.0134 45.1134 58.0045 44.2107 56.4411L33.8728 38.5355ZM21.6777 57.5135L31.8104 39.9634L41.9431 57.5135H21.6777Z" fill="currentColor" />
  <path d="M63.6813 16.2275L58.7673 7.71622C58.3433 6.98171 57.553 6.52545 56.7048 6.52545H46.8767C46.0285 6.52545 45.2382 6.98171 44.8142 7.7161L39.9001 16.2275C39.476 16.962 39.476 17.8745 39.9001 18.609L44.8141 27.1203C45.2381 27.8548 46.0284 28.311 46.8766 28.311H56.7046C57.5529 28.311 58.3432 27.8548 58.7672 27.1204L63.6813 18.609C64.1054 17.8744 64.1054 16.962 63.6813 16.2275ZM56.6364 25.811H46.9451L42.0995 17.4182L46.9451 9.02537H56.6364L61.482 17.4181L56.6364 25.811Z" fill="currentColor" />
  <path d="M21.7857 25.9295V22.919C21.7242 21.2622 19.3466 21.2634 19.2857 22.919V25.811H2.50004V9.02537H19.2857V11.9923C19.3472 13.6491 21.7248 13.6478 21.7857 11.9923V8.90687C21.7857 7.59372 20.7173 6.52533 19.4042 6.52533H2.38154C1.06839 6.52533 0 7.59372 0 8.90687V25.9295C0 27.2427 1.06839 28.311 2.38154 28.311H19.4042C20.7173 28.311 21.7857 27.2427 21.7857 25.9295Z" fill="currentColor" />
  <path d="M21.575 16.7243C21.1945 16.1583 20.4096 16.0024 19.8412 16.3793C18.5097 17.3619 19.8085 19.3115 21.2287 18.458C21.7947 18.0794 21.9532 17.2913 21.575 16.7243Z" fill="currentColor" />
  <path d="M25.5797 7.3731C30.3888 5.95695 35.7357 6.24258 40.3495 8.19086C40.9785 8.45362 41.7223 8.14811 41.9849 7.51973C42.2512 6.88272 41.9508 6.15058 41.3138 5.8842C36.1762 3.71517 30.2321 3.39679 24.878 4.97369C24.2154 5.16744 23.8354 5.8617 24.029 6.52421C24.2229 7.18672 24.9168 7.5671 25.5797 7.3731V7.3731Z" fill="currentColor" />
  <path d="M20.7718 49.3272C21.1293 48.7366 20.9406 47.9681 20.3499 47.6106C14.613 44.1367 10.792 38.3531 9.86703 31.7431C9.7714 31.0593 9.13939 30.5819 8.45588 30.6783C7.77212 30.7741 7.29549 31.4057 7.39111 32.0895C8.42075 39.4473 12.6721 45.8839 19.055 49.749C19.6384 50.1024 20.4191 49.9097 20.7718 49.3272Z" fill="currentColor" />
  <path d="M55.134 30.9967C54.452 30.8917 53.8134 31.3597 53.7084 32.042C52.7527 38.2517 49.168 43.788 43.8733 47.2315C43.2946 47.6078 43.1306 48.3821 43.507 48.9609C43.8782 49.5316 44.6649 49.6989 45.2364 49.3272C51.127 45.4963 55.1155 39.3347 56.1793 32.4225C56.2844 31.74 55.8164 31.1017 55.134 30.9967V30.9967Z" fill="currentColor" />
</svg>