<svg width="64" height="64" viewBox="0 0 64 64" fill="currentColor" xmlns="http://www.w3.org/2000/svg">
  <path d="M41.7181 13.2309C38.7713 11.0731 35.2772 9.93634 31.6256 9.93634C27.9729 9.93634 24.4788 11.0731 21.5327 13.2309C18.5863 15.3891 16.4362 18.3684 15.3242 21.8463C13.0751 28.9181 15.656 36.5875 21.7652 40.9116C22.5449 41.4674 23.0098 42.3631 23.0098 43.3185V44.7376C23.0098 46.1899 24.1883 47.3684 25.641 47.3684L38.8131 47.3765C39.3112 47.4349 39.6934 47.8581 39.6934 48.3562C39.6934 48.854 39.3112 49.2775 38.8131 49.3351L27.2674 49.3445C27.2593 49.3445 27.2512 49.3445 27.2346 49.3445C27.2264 49.3445 27.2183 49.3445 27.2013 49.3445C25.1599 49.4358 23.5494 51.1035 23.5494 53.1538C23.5494 55.2033 25.1514 56.8723 27.2013 56.9636H27.2512L36.7129 57.0548C37.2114 57.1124 37.5932 57.5356 37.5932 58.0341C37.5932 58.5319 37.2114 58.9554 36.7129 59.0126L28.3469 59.022C27.5664 59.022 26.936 59.6528 26.936 60.4325C26.936 61.2126 27.5664 61.8435 28.3469 61.8435L36.7879 61.8354C36.8216 61.8354 36.8626 61.8354 36.8958 61.8272H36.9368C38.9047 61.6609 40.4228 60.0009 40.4228 58.0423C40.4228 56.0836 38.9129 54.4317 36.9709 54.2491C36.9619 54.2491 36.9538 54.2491 36.9538 54.2491C36.9457 54.2491 36.9287 54.2491 36.9206 54.2491C36.9039 54.2491 36.8873 54.2491 36.8707 54.2491C36.8544 54.2491 36.8378 54.2491 36.8216 54.2491L27.3258 54.1579C26.8029 54.1327 26.3883 53.7015 26.3883 53.1704C26.3883 52.6467 26.7948 52.2155 27.3177 52.1822L38.8873 52.1741C38.921 52.1741 38.9624 52.1741 38.996 52.166H39.037C40.9875 51.9915 42.4983 50.3315 42.4983 48.3729C42.4983 46.4143 40.9794 44.7538 39.037 44.5798C39.0289 44.5798 39.0208 44.5798 39.0208 44.5798C39.0122 44.5798 39.0041 44.5798 38.996 44.5798C38.9786 44.5798 38.9624 44.5798 38.9376 44.5798C38.921 44.5798 38.9047 44.5798 38.8792 44.5798L25.8236 44.5717V43.3429C25.8236 41.4755 24.9104 39.708 23.3834 38.6284C18.2792 35.0098 16.121 28.6191 17.9964 22.7177C19.8893 16.7672 25.3591 12.766 31.6086 12.766C37.8589 12.766 43.3283 16.7672 45.2204 22.7177C47.1133 28.6686 44.9636 35.0929 39.8755 38.7035C39.2366 39.1514 39.0873 40.0313 39.5437 40.6702C39.8175 41.0609 40.2573 41.2682 40.697 41.2682C40.9794 41.2682 41.2617 41.185 41.5104 41.0106C44.4901 38.8946 46.6812 35.9477 47.8435 32.4873C49.0054 29.0175 49.0301 25.3489 47.9177 21.8714C46.8143 18.3684 44.6646 15.3891 41.7181 13.2309V13.2309Z" fill="currentColor" />
  <path d="M11.9895 25.9217H7.50757C6.86862 25.9217 6.3457 26.4446 6.3457 27.0836C6.3457 27.7225 6.86862 28.2454 7.50757 28.2454H11.9895C12.6285 28.2454 13.1514 27.7225 13.1514 27.0836C13.1514 26.4365 12.6366 25.9217 11.9895 25.9217Z" fill="currentColor" />
  <path d="M31.5841 8.64907C32.2227 8.64907 32.746 8.12615 32.746 7.4872V3.00566C32.746 2.3663 32.2227 1.84338 31.5841 1.84338C30.9448 1.84338 30.4219 2.3663 30.4219 3.00566V7.4872C30.4219 8.13466 30.9363 8.64907 31.5841 8.64907Z" fill="currentColor" />
  <path d="M17.7326 14.3927C18.0227 14.3927 18.3217 14.2852 18.546 14.0608C19.002 13.613 19.0109 12.8734 18.5627 12.4178L15.4166 9.18904C14.9683 8.73224 14.23 8.72413 13.7732 9.17281C13.3168 9.62027 13.3087 10.359 13.757 10.8158L16.9026 14.0446C17.1347 14.2767 17.4337 14.3927 17.7326 14.3927Z" fill="currentColor" />
  <path d="M47.8268 9.19719L44.6811 12.426C44.2324 12.8828 44.2405 13.6211 44.6973 14.0694C44.9213 14.2933 45.2203 14.4008 45.5111 14.4008C45.8101 14.4008 46.1172 14.2852 46.3412 14.0528L49.4868 10.8244C49.9347 10.3676 49.9266 9.62924 49.4702 9.18097C49.0053 8.72417 48.275 8.7404 47.8268 9.19719Z" fill="currentColor" />
  <path d="M55.7367 25.9217H51.1716C50.5327 25.9217 50.0098 26.4446 50.0098 27.0836C50.0098 27.7225 50.5327 28.2454 51.1716 28.2454H55.7367C56.3757 28.2454 56.8986 27.7225 56.8986 27.0836C56.8986 26.4365 56.3757 25.9217 55.7367 25.9217V25.9217Z" fill="currentColor" />
</svg>