<?xml version="1.0" encoding="UTF-8"?>
<svg width="17" height="21" viewBox="0 0 17 21" fill="currentColor" xmlns="http://www.w3.org/2000/svg">
  <path d="M12.294 9.09C12.626 8.827 12.942 8.548 13.241 8.25L13.377 8.108C13.66 7.815 13.929 7.51 14.178 7.189L14.24 7.114C14.495 6.779 14.726 6.426 14.942 6.065L15.07 5.845C15.275 5.481 15.465 5.108 15.629 4.722C15.649 4.675 15.664 4.627 15.684 4.58C15.831 4.219 15.958 3.849 16.067 3.471C16.088 3.401 16.111 3.331 16.13 3.26C16.237 2.858 16.319 2.447 16.381 2.031C16.394 1.944 16.402 1.856 16.413 1.768C16.464 1.336 16.5 0.899 16.5 0.457V0H14.5V0.457C14.5 0.641 14.469 0.818 14.458 1H2.522C2.512 0.819 2.5 0.64 2.5 0.457V0H0.5V0.457C0.5 5.333 3.769 9.675 8.452 11.026L8.48 11.035C11.361 11.858 13.536 14.181 14.249 17H2.751L3.55 15H11.157C10.6063 14.2052 9.90548 13.5258 9.094 13H5.094C5.539 12.576 6.05 12.226 6.585 11.91C5.85449 11.6543 5.15641 11.314 4.505 10.896C2.05 12.812 0.5 15.779 0.5 19.015V21H2.5V19.015L2.501 19H14.499L14.5 19.015V21H16.5V19.015C16.5 15.185 14.341 11.712 11.057 9.945C11.4282 9.72309 11.7862 9.47968 12.129 9.216C12.184 9.174 12.239 9.134 12.294 9.09ZM11.104 7.486C10.4013 8.04986 9.61746 8.50432 8.779 8.834C8.687 8.87 8.594 8.902 8.501 8.936C7.32235 8.51882 6.24419 7.85932 5.336 7H11.628C11.457 7.161 11.296 7.333 11.111 7.48L11.104 7.486ZM14.119 3C14.114 3.016 14.112 3.033 14.107 3.049L14.063 3.2C13.9233 3.6295 13.7519 4.04799 13.55 4.452C13.454 4.642 13.337 4.817 13.229 5H3.749C3.37923 4.37082 3.08678 3.69929 2.878 3H14.119Z" fill="black" />
</svg>