<?xml version="1.0" encoding="UTF-8"?>
<svg width="64" height="64" viewBox="0 0 64 64" fill="currentColor" xmlns="http://www.w3.org/2000/svg">
  <path d="M56.4651 40.8022C56.5023 40.7164 56.5335 40.6281 56.5583 40.538C58.4814 35.006 58.4805 28.9867 56.5558 23.4553C56.5318 23.3694 56.5021 23.2852 56.4669 23.2033C54.6508 18.1711 51.3291 13.8204 46.9534 10.7424C42.5777 7.66447 37.3603 6.00871 32.0105 6.00025L32 5.99109L31.9895 6.00025C26.6402 6.0087 21.4232 7.66414 17.0478 10.7415C12.6723 13.8189 9.35055 18.169 7.53406 23.2004C7.49774 23.2845 7.46727 23.3709 7.44287 23.4591C5.51791 28.9939 5.51908 35.0167 7.44617 40.5507C7.46942 40.6331 7.49796 40.714 7.53161 40.7927C9.34705 45.8259 12.6686 50.1777 17.0446 53.2565C21.4207 56.3352 26.6387 57.9915 31.9893 58L32 58.0094L32.0108 58C37.3596 57.9915 42.5761 56.3363 46.9513 53.2594C51.3265 50.1824 54.6483 45.833 56.4651 40.8022ZM32 11.3898C34.9029 14.3978 37.0846 18.0258 38.3806 22.0001H25.6194C26.9154 18.0258 29.0971 14.3978 32 11.3898ZM25.6195 42.0001H38.3805C37.0845 45.9744 34.9028 49.6024 32 52.6105C29.0972 49.6024 26.9155 45.9744 25.6195 42.0001ZM24.5724 38.0001C23.8092 34.0365 23.8092 29.9637 24.5724 26.0001H39.4276C40.1908 29.9637 40.1908 34.0365 39.4276 38.0001H24.5724ZM43.5071 26.0001H53.1683C54.2772 29.9233 54.2772 34.077 53.1683 38.0001H43.5071C44.1643 34.0271 44.1643 29.9731 43.5071 26.0001ZM51.593 22.0001H42.6019C41.4045 17.7856 39.3506 13.8634 36.5687 10.4785C39.7707 11.1647 42.78 12.5544 45.3785 14.5472C47.9771 16.5399 50.0998 19.0857 51.593 22.0001H51.593ZM36.5686 53.5217C39.3505 50.1369 41.4043 46.2146 42.6018 42.0001H51.593C50.0998 44.9146 47.9771 47.4604 45.3785 49.4531C42.7799 51.4459 39.7706 52.8356 36.5686 53.5217Z" fill="currentColor" />
</svg>