<?xml version="1.0" encoding="UTF-8"?>
<svg width="36" height="36" viewBox="0 0 36 36" fill="currentColor" xmlns="http://www.w3.org/2000/svg">
  <mask id="path-1-outside-1_1776_51963" maskUnits="userSpaceOnUse" x="3.5" y="8" width="29" height="18" fill="currentColor">
    <rect fill="white" x="3.5" y="8" width="29" height="18" />
    <path fill-rule="evenodd" clip-rule="evenodd" d="M5.25 10.5C4.83579 10.5 4.5 10.1642 4.5 9.75C4.5 9.33579 4.83579 9 5.25 9H30.75C31.1642 9 31.5 9.33579 31.5 9.75C31.5 10.1642 31.1642 10.5 30.75 10.5H5.25ZM5.25 18C4.83579 18 4.5 17.6642 4.5 17.25C4.5 16.8358 4.83579 16.5 5.25 16.5H30.75C31.1642 16.5 31.5 16.8358 31.5 17.25C31.5 17.6642 31.1642 18 30.75 18H5.25ZM4.5 24.75C4.5 25.1642 4.83579 25.5 5.25 25.5H30.75C31.1642 25.5 31.5 25.1642 31.5 24.75C31.5 24.3358 31.1642 24 30.75 24H5.25C4.83579 24 4.5 24.3358 4.5 24.75Z" />
  </mask>
  <path fill-rule="evenodd" clip-rule="evenodd" d="M5.25 10.5C4.83579 10.5 4.5 10.1642 4.5 9.75C4.5 9.33579 4.83579 9 5.25 9H30.75C31.1642 9 31.5 9.33579 31.5 9.75C31.5 10.1642 31.1642 10.5 30.75 10.5H5.25ZM5.25 18C4.83579 18 4.5 17.6642 4.5 17.25C4.5 16.8358 4.83579 16.5 5.25 16.5H30.75C31.1642 16.5 31.5 16.8358 31.5 17.25C31.5 17.6642 31.1642 18 30.75 18H5.25ZM4.5 24.75C4.5 25.1642 4.83579 25.5 5.25 25.5H30.75C31.1642 25.5 31.5 25.1642 31.5 24.75C31.5 24.3358 31.1642 24 30.75 24H5.25C4.83579 24 4.5 24.3358 4.5 24.75Z" fill="currentColor" />
  <path d="M4.2 9.75C4.2 10.3299 4.6701 10.8 5.25 10.8V10.2C5.00147 10.2 4.8 9.99853 4.8 9.75H4.2ZM5.25 8.7C4.6701 8.7 4.2 9.1701 4.2 9.75H4.8C4.8 9.50147 5.00147 9.3 5.25 9.3V8.7ZM30.75 8.7H5.25V9.3H30.75V8.7ZM31.8 9.75C31.8 9.1701 31.3299 8.7 30.75 8.7V9.3C30.9985 9.3 31.2 9.50147 31.2 9.75H31.8ZM30.75 10.8C31.3299 10.8 31.8 10.3299 31.8 9.75H31.2C31.2 9.99853 30.9985 10.2 30.75 10.2V10.8ZM5.25 10.8H30.75V10.2H5.25V10.8ZM4.2 17.25C4.2 17.8299 4.6701 18.3 5.25 18.3V17.7C5.00147 17.7 4.8 17.4985 4.8 17.25H4.2ZM5.25 16.2C4.6701 16.2 4.2 16.6701 4.2 17.25H4.8C4.8 17.0015 5.00147 16.8 5.25 16.8V16.2ZM30.75 16.2H5.25V16.8H30.75V16.2ZM31.8 17.25C31.8 16.6701 31.3299 16.2 30.75 16.2V16.8C30.9985 16.8 31.2 17.0015 31.2 17.25H31.8ZM30.75 18.3C31.3299 18.3 31.8 17.8299 31.8 17.25H31.2C31.2 17.4985 30.9985 17.7 30.75 17.7V18.3ZM5.25 18.3H30.75V17.7H5.25V18.3ZM5.25 25.2C5.00147 25.2 4.8 24.9985 4.8 24.75H4.2C4.2 25.3299 4.6701 25.8 5.25 25.8V25.2ZM30.75 25.2H5.25V25.8H30.75V25.2ZM31.2 24.75C31.2 24.9985 30.9985 25.2 30.75 25.2V25.8C31.3299 25.8 31.8 25.3299 31.8 24.75H31.2ZM30.75 24.3C30.9985 24.3 31.2 24.5015 31.2 24.75H31.8C31.8 24.1701 31.3299 23.7 30.75 23.7V24.3ZM5.25 24.3H30.75V23.7H5.25V24.3ZM4.8 24.75C4.8 24.5015 5.00147 24.3 5.25 24.3V23.7C4.6701 23.7 4.2 24.1701 4.2 24.75H4.8Z" fill="currentColor" mask="url(#path-1-outside-1_1776_51963)" />
</svg>