<?xml version="1.0" encoding="UTF-8"?>
<svg width="64" height="64" viewBox="0 0 64 64" fill="currentColor" xmlns="http://www.w3.org/2000/svg">
  <path d="M29.94 53.7004C29.8766 53.9554 29.7635 54.1953 29.6072 54.4065C29.451 54.6177 29.2545 54.796 29.0293 54.9312C28.804 55.0664 28.5542 55.1558 28.2943 55.1942C28.0344 55.2327 27.7695 55.2196 27.5147 55.1555L19.9798 53.2719C19.3685 53.1182 18.8018 52.823 18.3255 52.4101L12.6878 47.5095C12.2874 47.1615 12.0417 46.6688 12.0047 46.1396C11.9676 45.6105 12.1423 45.0883 12.4903 44.688C12.8382 44.2876 13.331 44.0419 13.8601 44.0048C14.3893 43.9678 14.9115 44.1425 15.3118 44.4904L20.95 49.3913L28.4849 51.2751C28.7397 51.3388 28.9795 51.452 29.1905 51.6084C29.4015 51.7647 29.5797 51.9611 29.7148 52.1863C29.8499 52.4116 29.9394 52.6612 29.978 52.921C30.0166 53.1808 30.0037 53.4456 29.94 53.7004ZM63.0904 29.8889C62.9283 30.395 62.6663 30.8634 62.3199 31.2664C61.9735 31.6694 61.5498 31.9987 61.0738 32.2349L55.2567 35.1435L51.52 39.5148C51.507 39.5301 51.4927 39.5442 51.4793 39.559C51.4669 39.5725 51.4547 39.586 51.4422 39.5991C51.4326 39.6091 51.4239 39.6197 51.4141 39.6295L42.2149 48.8291C41.4607 49.5786 40.4405 49.9992 39.3772 49.999C39.0532 49.999 38.7304 49.9594 38.416 49.8808L23.9268 46.2585C23.383 46.1233 22.8739 45.8747 22.4329 45.529L8.92581 34.967L2.92581 31.967C2.45073 31.7294 2.02773 31.3996 1.68149 30.9967C1.33525 30.5939 1.0727 30.1262 0.909159 29.6208C0.74562 29.1154 0.684367 28.5825 0.728975 28.0532C0.773582 27.5239 0.923157 27.0088 1.16897 26.5379L7.31716 14.7636C7.80637 13.8378 8.63757 13.1393 9.63389 12.8169C10.6302 12.4945 11.713 12.5737 12.6519 13.0374L18.2456 15.8343L30.4136 12.287C31.3302 12.0201 32.312 12.0895 33.1819 12.4826L41.4312 16.2153H45.5279L51.3479 13.3054C52.2867 12.8413 53.3696 12.762 54.366 13.0844C55.3624 13.4069 56.1935 14.1056 56.6824 15.0317L62.8306 26.8058C63.0781 27.2761 63.2286 27.7914 63.2732 28.321C63.3178 28.8506 63.2556 29.3838 63.0904 29.8889ZM46.9306 38.4561L39.0181 32.7016L36.9998 34.2153C35.2655 35.5057 33.1614 36.2025 30.9998 36.2025C28.8381 36.2025 26.7341 35.5057 24.9998 34.2153L23.6446 33.1989C23.1861 32.8551 22.8069 32.4167 22.5326 31.9136C22.2583 31.4104 22.0953 30.8542 22.0547 30.2826C22.0141 29.7109 22.0967 29.1372 22.2971 28.6003C22.4975 28.0634 22.8109 27.5759 23.2161 27.1706L32.9998 17.3869C33.1427 17.2461 33.2959 17.1161 33.4582 16.9981L31.5332 16.127L19.3523 19.6781L12.5434 32.718L24.897 42.3781L39.3862 46.0005L46.9306 38.4561ZM51.6013 33.2637L44.7877 20.2153H41.0054L40.9986 20.2158C40.9954 20.2158 40.9923 20.2153 40.9893 20.2153H35.8281L26.0447 29.999L27.3997 31.0153C28.4403 31.7895 29.7028 32.2076 30.9998 32.2076C32.2968 32.2076 33.5593 31.7895 34.5999 31.0153L37.7998 28.6153C38.142 28.3586 38.5574 28.2184 38.9851 28.2153C39.4128 28.2122 39.8302 28.3462 40.176 28.5979L49.6808 35.5104L51.6013 33.2637Z" fill="currentColor" />
</svg>