<svg width="64" height="64" viewBox="0 0 64 64" fill="currentColor" xmlns="http://www.w3.org/2000/svg">
  <g clip-path="url(#clip0_2254_70353)">
    <path d="M1.56956 39.8837C1.92055 40.1269 2.29085 40.3409 2.67676 40.5237C3.13863 40.7595 3.9109 41.1541 3.9653 41.4315C4.03318 41.7956 3.98969 42.1718 3.8405 42.5109C3.68156 42.8523 3.5141 43.1456 3.37116 43.3995C2.9797 44.0885 2.3269 45.2437 3.3125 46.0501C3.5429 46.2635 3.94076 46.5717 4.3045 46.8501C4.03721 47.3168 3.91607 47.853 3.95676 48.3893C4.01279 48.8091 4.23928 49.1872 4.5829 49.4347C4.8229 49.6053 5.07996 49.7547 5.32956 49.8987C5.95676 50.256 6.2021 50.4224 6.28956 50.752C6.34693 51.1859 6.30685 51.6272 6.17223 52.0437C6.1093 52.3211 6.0485 52.5973 6.00903 52.8811C5.9033 53.8539 6.02678 54.838 6.36956 55.7547C6.84828 57.4532 8.3843 58.6367 10.1488 58.6667C10.4416 58.6656 10.7336 58.6348 11.0202 58.5749C14.0675 57.8527 17.0702 56.9542 20.0133 55.8837C22.4154 57.2939 23.9344 61.5819 24.3301 63.1915C24.4487 63.6669 24.8759 64.0003 25.3658 64L52.1392 63.9253C52.4785 63.9247 52.7972 63.7626 52.9977 63.4889C53.1982 63.2151 53.2564 62.8623 53.1546 62.5387C52.8908 61.816 52.5271 61.1338 52.0741 60.512C51.8179 60.1441 51.5869 59.7592 51.3829 59.36C50.9006 58.3817 50.4979 57.3662 50.1786 56.3232C49.5702 54.2617 49.1479 52.1498 48.9168 50.0128C48.5423 46.8216 49.0262 43.5882 50.3184 40.6464C51.1069 39.0149 52.0789 37.4785 53.2154 36.0672C53.8554 35.2032 54.52 34.3083 55.1162 33.3685C56.1414 31.7759 56.8848 30.0187 57.3136 28.1739C57.4363 27.6044 57.0794 27.0418 56.5119 26.9101C55.9445 26.7784 55.3763 27.1264 55.2357 27.6917C54.8607 29.3018 54.2112 30.8354 53.3157 32.2251C52.7621 33.1008 52.1221 33.9627 51.5024 34.7968C50.2681 36.3369 49.2148 38.0137 48.3632 39.7941C46.9186 43.0842 46.3788 46.7003 46.7994 50.2688C47.0454 52.5351 47.4956 54.7746 48.1445 56.96C48.4949 58.1075 48.9376 59.2247 49.4682 60.3008C49.7114 60.7816 49.9876 61.2449 50.2949 61.6875L50.3664 61.7941L26.1722 61.8667C25.4632 59.3365 24.1777 57.0049 22.4165 55.0549L23.3765 54.7211C24.0933 54.4704 24.6341 54.2816 24.9136 54.1877C29.481 52.7317 31.7658 50.6517 31.7029 48.0011C31.7 47.7179 31.5825 47.4481 31.3773 47.2529C31.1722 47.0578 30.8967 46.9541 30.6138 46.9653C30.0251 46.9793 29.5591 47.4678 29.5728 48.0565C29.5984 49.1477 28.6992 50.7456 24.265 52.1579C23.9749 52.2507 23.4117 52.4459 22.6746 52.7051C21.8821 52.9813 20.8773 53.3333 19.768 53.7099H19.7605C16.7607 54.8098 13.7 55.7358 10.5936 56.4832C9.60004 56.67 8.63425 56.046 8.39623 55.0635C8.16682 54.4614 8.07675 53.8152 8.13276 53.1733C8.1637 52.96 8.21383 52.736 8.2629 52.5184C8.4899 51.7738 8.52658 50.9842 8.36956 50.2219C8.05979 49.2451 7.34138 48.4508 6.4005 48.0448L6.17116 47.9136C6.28614 47.68 6.42406 47.4585 6.5829 47.2523C6.76161 47.0252 6.8406 46.7355 6.8018 46.4492C6.763 46.1629 6.60972 45.9046 6.37703 45.7333C6.1221 45.5456 5.5237 45.0933 5.0757 44.7371C5.1269 44.6443 5.18236 44.5419 5.23676 44.4501C5.40423 44.1557 5.59623 43.8101 5.78183 43.4187C6.11987 42.6715 6.21896 41.8381 6.06556 41.0325C5.81063 39.7312 4.5637 39.0933 3.65383 38.6283C3.34729 38.4824 3.05331 38.3115 2.7749 38.1173C2.54631 37.9642 2.3321 37.7907 2.1349 37.5989C2.1349 37.4368 2.30876 37.0453 3.1205 36.0565C5.02922 33.5972 6.66546 30.9381 8.0005 28.1259C8.25111 27.685 8.39231 27.1904 8.41223 26.6837C8.30052 25.6105 7.7299 24.638 6.84743 24.0171C6.41543 23.6203 6.0069 23.2469 5.96103 22.9323C5.97081 22.6709 6.02942 22.4137 6.13383 22.1739C6.3077 21.7173 6.5093 21.2693 6.70983 20.8203C7.15963 19.8938 7.51692 18.9252 7.7765 17.9285C8.02093 16.7331 8.34158 15.5545 8.7365 14.4C9.57724 12.0791 10.8791 9.95252 12.5637 8.14825C14.6032 5.98825 17.8138 4.46078 22.1232 3.60532C25.4194 2.88163 28.7641 2.39963 32.1306 2.16318C33.2633 2.10481 34.3988 2.12905 35.528 2.23572C35.9083 2.27116 36.2786 2.10101 36.4995 1.78936C36.7203 1.47771 36.7581 1.07191 36.5987 0.724826C36.4392 0.377738 36.1067 0.142091 35.7264 0.10665C34.4938 -0.00628716 33.2547 -0.0308833 32.0186 0.03305C28.5481 0.273855 25.1 0.768692 21.7018 1.51358C16.8922 2.47358 13.3968 4.15998 11.0117 6.68158C9.12831 8.69494 7.67251 11.0691 6.73223 13.6608C6.29996 14.922 5.94902 16.2096 5.68156 17.5157C5.45359 18.3533 5.14716 19.1676 4.76636 19.9477C4.55303 20.4331 4.3333 20.9184 4.1413 21.4229C3.89854 21.9869 3.79887 22.6021 3.85116 23.2139C4.07181 24.166 4.62522 25.008 5.4117 25.5883C5.93436 26.0672 6.2789 26.4043 6.28316 26.6987C6.24434 26.8606 6.18332 27.0164 6.10183 27.1616C4.82475 29.8513 3.25969 32.3945 1.4341 34.7467C0.661829 35.6885 -0.148837 36.7861 0.0207627 37.8848C0.247904 38.7319 0.805996 39.4522 1.56956 39.8837Z" fill="currentColor" />
    <path d="M35.0503 5.97335L34.4103 9.16481C33.7933 9.36741 33.1928 9.61703 32.614 9.91148L29.9057 8.09815C29.0595 7.54398 27.9405 7.66025 27.2263 8.37655L25.4556 10.1461C24.7252 10.8632 24.607 11.998 25.174 12.8501L26.9788 15.5456C26.6843 16.1244 26.4347 16.7249 26.2321 17.3419L23.0449 17.9819C22.049 18.1831 21.3332 19.0587 21.334 20.0747V22.592C21.3333 23.6063 22.0468 24.4809 23.0407 24.6837L26.2321 25.3237C26.4347 25.9407 26.6843 26.5412 26.9788 27.12L25.1655 29.8283C24.6113 30.6745 24.7276 31.7935 25.4439 32.5077L27.2145 34.2784C27.9329 35.0055 29.0651 35.123 29.9175 34.5589L32.6129 32.7541C33.1917 33.0486 33.7922 33.2982 34.4092 33.5008L35.0492 36.688C35.2499 37.6843 36.1256 38.4007 37.142 38.4H39.6593C40.6736 38.4007 41.5482 37.6872 41.7511 36.6933L42.3911 33.5019C43.008 33.2993 43.6085 33.0497 44.1873 32.7552L46.8956 34.5685C47.7418 35.1227 48.8608 35.0064 49.5751 34.2901L51.3447 32.5205C52.075 31.8035 52.1932 30.6687 51.6263 29.8165L49.8215 27.1211C50.1159 26.5423 50.3655 25.9418 50.5681 25.3248L53.7553 24.6848C54.3884 24.5568 54.9289 24.1478 55.2241 23.5733L56.8316 24.6507C57.1417 24.8461 57.5007 24.95 57.8673 24.9504C58.3787 24.9505 58.8689 24.7467 59.2295 24.384L60.6481 22.9653C61.2933 22.3169 61.3969 21.3055 60.8967 20.5397L59.5207 18.4811C59.7202 18.0799 59.8927 17.6658 60.0369 17.2416L62.4508 16.7605C63.3539 16.5831 64.0041 15.7897 64.0007 14.8693V12.864C64.0039 11.9471 63.3583 11.1558 62.4593 10.9749L60.0348 10.4917C59.8917 10.0674 59.7199 9.6533 59.5207 9.25228L60.918 7.16908C61.4022 6.4061 61.2913 5.40917 60.6513 4.77121L59.2327 3.35255C58.5844 2.707 57.5728 2.60334 56.8071 3.10401L54.7484 4.48001C54.3472 4.28042 53.9331 4.10795 53.5089 3.96375L53.0268 1.54988C52.8494 0.647134 52.0566 -0.00293281 51.1367 1.21089e-05H49.1313C48.2144 -0.0032237 47.4231 0.642389 47.2423 1.54135L46.7591 3.96588C46.3346 4.10999 45.9205 4.28283 45.5196 4.48321L43.4364 3.08588C42.6732 2.60251 41.6768 2.71332 41.0385 3.35255L40.0785 4.31255C39.9406 4.28378 39.8002 4.26842 39.6593 4.26668H37.142C36.1277 4.26596 35.2531 4.97953 35.0503 5.97335ZM51.3575 10.1547L50.8593 9.65655C52.7082 9.90404 54.1787 11.3297 54.4834 13.17C54.7882 15.0103 53.8556 16.8338 52.1852 17.664L50.566 17.344C50.3634 16.727 50.1138 16.1265 49.8193 15.5477L51.6327 12.8395C52.1888 11.9935 52.0739 10.8732 51.3575 10.1579V10.1547ZM42.4295 4.97495L44.8679 6.61335C45.2098 6.84264 45.6532 6.85468 46.0071 6.64428C46.6177 6.28492 47.2744 6.01039 47.9591 5.82828C48.3503 5.72262 48.6479 5.40439 48.7271 5.00695L49.2999 2.13335H50.9681L51.5409 5.01335C51.6201 5.41079 51.9177 5.72902 52.3089 5.83468C52.9936 6.01679 53.6503 6.29132 54.2609 6.65068C54.616 6.85917 55.0594 6.84464 55.4001 6.61335L57.8385 4.97708L59.0225 6.16108L57.3873 8.60055C57.158 8.94249 57.146 9.38586 57.3564 9.73975C57.7157 10.3503 57.9903 11.0071 58.1724 11.6917C58.278 12.083 58.5963 12.3806 58.9937 12.4597L61.8737 13.0325V14.7008L58.9991 15.2736C58.6016 15.3528 58.2834 15.6504 58.1777 16.0416C57.9956 16.7263 57.7211 17.383 57.3617 17.9936C57.1513 18.3475 57.1634 18.7909 57.3927 19.1328L59.0289 21.5712L57.8449 22.7552L55.4673 21.1648V20.0747C55.4674 19.4502 55.1947 18.8567 54.7207 18.4501C56.5986 16.6411 57.1878 13.8719 56.209 11.455C55.2302 9.03815 52.8802 7.45927 50.2727 7.46668C49.6277 7.47073 48.9874 7.57583 48.3751 7.77815C47.8539 7.70221 47.3229 7.81903 46.8817 8.10668L44.1884 9.91148C43.6096 9.61703 43.0091 9.36741 42.3921 9.16481L41.7521 5.97761C41.7332 5.89215 41.7087 5.80805 41.6785 5.72588L42.4295 4.97495ZM36.374 10.2155L37.142 6.40001H39.6593L40.4263 10.2187C40.506 10.615 40.803 10.9322 41.1932 11.0379C42.0745 11.2755 42.9211 11.6269 43.7116 12.0832C44.0638 12.2875 44.5017 12.2735 44.8401 12.0469L48.0679 9.88801L49.8556 11.6661L47.6903 14.8971C47.4637 15.2355 47.4497 15.6734 47.654 16.0256C48.1103 16.8161 48.4617 17.6627 48.6993 18.544C48.805 18.9342 49.1222 19.2312 49.5185 19.3109L53.334 20.0736V22.592L49.5153 23.3589C49.119 23.4387 48.8018 23.7356 48.6961 24.1259C48.4585 25.0072 48.1071 25.8538 47.6508 26.6443C47.4465 26.9965 47.4605 27.4344 47.6871 27.7728L49.846 31.0005L48.0679 32.7883L44.8369 30.6229C44.4985 30.3964 44.0606 30.3824 43.7084 30.5867C42.9179 31.043 42.0713 31.3944 41.19 31.632C40.7998 31.7377 40.5028 32.0549 40.4231 32.4512L39.6593 36.2667H37.142L36.3751 32.448C36.2953 32.0517 35.9984 31.7345 35.6081 31.6288C34.7268 31.3912 33.8802 31.0398 33.0897 30.5835C32.7375 30.3792 32.2996 30.3932 31.9612 30.6197L28.7335 32.7787L26.9457 31.0005L29.1111 27.7696C29.3376 27.4312 29.3516 26.9933 29.1473 26.6411C28.691 25.8506 28.3396 25.004 28.102 24.1227C27.9963 23.7324 27.6791 23.4355 27.2828 23.3557L23.4673 22.592V20.0747L27.286 19.3077C27.6823 19.228 27.9995 18.931 28.1052 18.5408C28.3428 17.6595 28.6942 16.8129 29.1505 16.0224C29.3548 15.6702 29.3408 15.2323 29.1143 14.8939L26.9553 11.6661L28.7335 9.87841L31.9644 12.0437C32.3028 12.2703 32.7407 12.2843 33.0929 12.08C33.8834 11.6237 34.73 11.2723 35.6113 11.0347C35.9999 10.9276 36.295 10.6107 36.374 10.2155Z" fill="currentColor" />
    <path d="M38.4003 28.8C42.524 28.8 45.8669 25.457 45.8669 21.3333C45.8669 17.2096 42.524 13.8666 38.4003 13.8666C34.2765 13.8666 30.9336 17.2096 30.9336 21.3333C30.9383 25.4551 34.2785 28.7953 38.4003 28.8ZM38.4003 16C41.3458 16 43.7336 18.3878 43.7336 21.3333C43.7336 24.2788 41.3458 26.6666 38.4003 26.6666C35.4547 26.6666 33.0669 24.2788 33.0669 21.3333C33.0705 18.3892 35.4562 16.0035 38.4003 16Z" fill="currentColor" />
  </g>
  <defs>
    <clipPath id="clip0_2254_70353">
      <rect width="64" height="64" fill="currentColor" />
    </clipPath>
  </defs>
</svg>