<?xml version="1.0" encoding="UTF-8"?>
<svg width="18" height="18" viewBox="0 0 18 18" fill="currentColor" xmlns="http://www.w3.org/2000/svg">
  <path d="M8.99995 2.20001C11.2 2.20001 11.5 2.20001 12.4 2.20001C13.2 2.20001 13.6 2.40001 13.9 2.50001C14.3 2.70001 14.6 2.80001 14.9 3.10001C15.2 3.40001 15.4 3.70001 15.5 4.10001C15.6 4.40001 15.7 4.80001 15.8 5.60001C15.8 6.50001 15.8 6.70001 15.8 9.00001C15.8 11.3 15.8 11.5 15.8 12.4C15.8 13.2 15.6 13.6 15.5 13.9C15.3 14.3 15.2 14.6 14.9 14.9C14.6 15.2 14.3 15.4 13.9 15.5C13.6 15.6 13.2 15.7 12.4 15.8C11.5 15.8 11.3 15.8 8.99995 15.8C6.69995 15.8 6.49995 15.8 5.59995 15.8C4.79995 15.8 4.39995 15.6 4.09995 15.5C3.69995 15.3 3.39995 15.2 3.09995 14.9C2.79995 14.6 2.59995 14.3 2.49995 13.9C2.39995 13.6 2.29995 13.2 2.19995 12.4C2.19995 11.5 2.19995 11.3 2.19995 9.00001C2.19995 6.70001 2.19995 6.50001 2.19995 5.60001C2.19995 4.80001 2.39995 4.40001 2.49995 4.10001C2.69995 3.70001 2.79995 3.40001 3.09995 3.10001C3.39995 2.80001 3.69995 2.60001 4.09995 2.50001C4.39995 2.40001 4.79995 2.30001 5.59995 2.20001C6.49995 2.20001 6.79995 2.20001 8.99995 2.20001ZM8.99995 0.700012C6.69995 0.700012 6.49995 0.700012 5.59995 0.700012C4.69995 0.700012 4.09995 0.900013 3.59995 1.10001C3.09995 1.30001 2.59995 1.60001 2.09995 2.10001C1.59995 2.60001 1.39995 3.00001 1.09995 3.60001C0.899952 4.10001 0.799951 4.70001 0.699951 5.60001C0.699951 6.50001 0.699951 6.80001 0.699951 9.00001C0.699951 11.3 0.699951 11.5 0.699951 12.4C0.699951 13.3 0.899952 13.9 1.09995 14.4C1.29995 14.9 1.59995 15.4 2.09995 15.9C2.59995 16.4 2.99995 16.6 3.59995 16.9C4.09995 17.1 4.69995 17.2 5.59995 17.3C6.49995 17.3 6.79995 17.3 8.99995 17.3C11.2 17.3 11.5 17.3 12.4 17.3C13.3 17.3 13.9 17.1 14.4 16.9C14.9 16.7 15.4 16.4 15.9 15.9C16.4 15.4 16.6 15 16.9 14.4C17.1 13.9 17.1999 13.3 17.2999 12.4C17.2999 11.5 17.2999 11.2 17.2999 9.00001C17.2999 6.80001 17.2999 6.50001 17.2999 5.60001C17.2999 4.70001 17.1 4.10001 16.9 3.60001C16.7 3.10001 16.4 2.60001 15.9 2.10001C15.4 1.60001 15 1.40001 14.4 1.10001C13.9 0.900013 13.3 0.800012 12.4 0.700012C11.5 0.700012 11.3 0.700012 8.99995 0.700012Z" fill="currentColor" />
  <path d="M8.99995 4.70001C6.59995 4.70001 4.69995 6.60001 4.69995 9.00001C4.69995 11.4 6.59995 13.3 8.99995 13.3C11.4 13.3 13.3 11.4 13.3 9.00001C13.3 6.60001 11.4 4.70001 8.99995 4.70001ZM8.99995 11.8C7.49995 11.8 6.19995 10.6 6.19995 9.00001C6.19995 7.50001 7.39995 6.20001 8.99995 6.20001C10.5 6.20001 11.8 7.40001 11.8 9.00001C11.8 10.5 10.5 11.8 8.99995 11.8Z" fill="currentColor" />
  <path d="M13.4 5.60001C13.9522 5.60001 14.4 5.1523 14.4 4.60001C14.4 4.04773 13.9522 3.60001 13.4 3.60001C12.8477 3.60001 12.4 4.04773 12.4 4.60001C12.4 5.1523 12.8477 5.60001 13.4 5.60001Z" fill="currentColor" />
</svg>