<svg width="64" height="64" viewBox="0 0 64 64" fill="currentColor" xmlns="http://www.w3.org/2000/svg">
  <g clip-path="url(#clip0_2254_70388)">
    <path d="M58.9991 41.1V24.9C59.7742 24.7466 60.502 24.4116 61.1226 23.9226C61.7433 23.4336 62.2393 22.8045 62.5698 22.0868C62.9003 21.3691 63.0561 20.5833 63.0243 19.7937C62.9924 19.0042 62.7739 18.2335 62.3867 17.5447C61.9994 16.856 61.4545 16.2688 60.7964 15.8313C60.1384 15.3939 59.3861 15.1186 58.6011 15.0281C57.8162 14.9375 57.0209 15.0344 56.2806 15.3105C55.5403 15.5867 54.876 16.0345 54.3421 16.617L36.9321 5.662C36.9692 5.44308 36.9916 5.22192 36.9991 5C36.9991 3.67392 36.4723 2.40215 35.5346 1.46447C34.597 0.526784 33.3252 0 31.9991 0C30.673 0 29.4013 0.526784 28.4636 1.46447C27.5259 2.40215 26.9991 3.67392 26.9991 5C27.0066 5.22192 27.029 5.44308 27.0661 5.662L9.65612 16.616C9.12155 16.0388 8.45814 15.5961 7.71998 15.3241C6.98182 15.052 6.18982 14.9583 5.40854 15.0505C4.62726 15.1427 3.87883 15.4182 3.22428 15.8546C2.56974 16.2911 2.0276 16.876 1.64208 17.5618C1.25657 18.2475 1.03859 19.0147 1.00591 19.8007C0.973241 20.5868 1.1268 21.3694 1.45407 22.0848C1.78135 22.8002 2.27307 23.4281 2.88914 23.9173C3.50521 24.4066 4.22818 24.7433 4.99912 24.9V41.1C4.21016 41.2547 3.47013 41.5973 2.84178 42.0988C2.21343 42.6004 1.71529 43.246 1.3896 43.9811C1.0639 44.7161 0.920258 45.5189 0.970847 46.3212C1.02144 47.1236 1.26477 47.902 1.6802 48.5903C2.09564 49.2786 2.67093 49.8566 3.3573 50.2752C4.04367 50.6939 4.82087 50.9408 5.623 50.9952C6.42513 51.0495 7.22854 50.9096 7.9651 50.5874C8.70166 50.2651 9.34964 49.77 9.85412 49.144L27.0471 58.523C27.0321 58.682 26.9991 58.836 26.9991 58.999C26.9991 60.3251 27.5259 61.5969 28.4636 62.5345C29.4013 63.4722 30.673 63.999 31.9991 63.999C33.3252 63.999 34.597 63.4722 35.5346 62.5345C36.4723 61.5969 36.9991 60.3251 36.9991 58.999C36.9991 58.836 36.9661 58.682 36.9511 58.523L54.1441 49.144C54.6497 49.7635 55.2967 50.2525 56.0307 50.5697C56.7648 50.8868 57.5643 51.0229 58.3619 50.9664C59.1596 50.9099 59.9319 50.6626 60.614 50.2451C61.296 49.8277 61.8677 49.2525 62.2809 48.5679C62.6941 47.8833 62.9366 47.1094 62.9882 46.3114C63.0397 45.5134 62.8987 44.7148 62.577 43.9827C62.2553 43.2507 61.7623 42.6066 61.1397 42.105C60.517 41.6033 59.7829 41.2586 58.9991 41.1V41.1ZM57.9991 17C58.5925 17 59.1725 17.1759 59.6658 17.5056C60.1592 17.8352 60.5437 18.3038 60.7708 18.8519C60.9978 19.4001 61.0572 20.0033 60.9415 20.5853C60.8257 21.1672 60.54 21.7018 60.1204 22.1213C59.7009 22.5409 59.1663 22.8266 58.5844 22.9424C58.0024 23.0581 57.3992 22.9987 56.8511 22.7716C56.3029 22.5446 55.8344 22.1601 55.5047 21.6667C55.1751 21.1734 54.9991 20.5933 54.9991 20C54.9991 19.2044 55.3152 18.4413 55.8778 17.8787C56.4404 17.3161 57.2035 17 57.9991 17ZM31.9991 2C32.5925 2 33.1725 2.17595 33.6658 2.50559C34.1592 2.83524 34.5437 3.30377 34.7708 3.85195C34.9978 4.40013 35.0572 5.00333 34.9415 5.58527C34.8257 6.16721 34.54 6.70176 34.1204 7.12132C33.7009 7.54088 33.1663 7.8266 32.5844 7.94236C32.0024 8.05811 31.3992 7.9987 30.8511 7.77164C30.3029 7.54458 29.8344 7.16006 29.5047 6.66671C29.1751 6.17336 28.9991 5.59334 28.9991 5C28.9991 4.20435 29.3152 3.44129 29.8778 2.87868C30.4404 2.31607 31.2035 2 31.9991 2ZM2.99912 20C2.99912 19.4067 3.17506 18.8266 3.50471 18.3333C3.83435 17.8399 4.30289 17.4554 4.85107 17.2284C5.39924 17.0013 6.00244 16.9419 6.58439 17.0576C7.16633 17.1734 7.70088 17.4591 8.12044 17.8787C8.53999 18.2982 8.82572 18.8328 8.94147 19.4147C9.05723 19.9967 8.99782 20.5999 8.77075 21.1481C8.54369 21.6962 8.15917 22.1648 7.66583 22.4944C7.17248 22.8241 6.59246 23 5.99912 23C5.20347 23 4.44041 22.6839 3.8778 22.1213C3.31519 21.5587 2.99912 20.7956 2.99912 20ZM5.99912 49C5.40577 49 4.82575 48.8241 4.33241 48.4944C3.83906 48.1648 3.45454 47.6962 3.22748 47.148C3.00041 46.5999 2.941 45.9967 3.05676 45.4147C3.17252 44.8328 3.45824 44.2982 3.8778 43.8787C4.29735 43.4591 4.8319 43.1734 5.41385 43.0576C5.99579 42.9419 6.59899 43.0013 7.14717 43.2284C7.69534 43.4554 8.16388 43.8399 8.49352 44.3333C8.82317 44.8266 8.99912 45.4067 8.99912 46C8.99912 46.7956 8.68305 47.5587 8.12044 48.1213C7.55783 48.6839 6.79477 49 5.99912 49ZM31.9991 62C31.4058 62 30.8258 61.8241 30.3324 61.4944C29.8391 61.1648 29.4545 60.6962 29.2275 60.148C29.0004 59.5999 28.941 58.9967 29.0568 58.4147C29.1725 57.8328 29.4582 57.2982 29.8778 56.8787C30.2974 56.4591 30.8319 56.1734 31.4138 56.0576C31.9958 55.9419 32.599 56.0013 33.1472 56.2284C33.6953 56.4554 34.1639 56.8399 34.4935 57.3333C34.8232 57.8266 34.9991 58.4067 34.9991 59C34.9991 59.7956 34.683 60.5587 34.1204 61.1213C33.5578 61.6839 32.7948 62 31.9991 62V62ZM36.3451 56.576C35.9185 55.7962 35.2898 55.1456 34.5252 54.6923C33.7605 54.2391 32.888 53.9999 31.9991 53.9999C31.1102 53.9999 30.2377 54.2391 29.4731 54.6923C28.7084 55.1456 28.0798 55.7962 27.6531 56.576L10.7831 47.376C10.92 46.9299 10.9927 46.4666 10.9991 46C10.9977 44.8478 10.599 43.7313 9.8704 42.8387C9.14177 41.9462 8.1277 41.3321 6.99912 41.1V24.9C8.1277 24.6679 9.14177 24.0538 9.8704 23.1613C10.599 22.2687 10.9977 21.1522 10.9991 20C10.9935 19.429 10.889 18.8633 10.6901 18.328L27.7471 7.6C28.1887 8.3323 28.8121 8.93806 29.5567 9.35856C30.3013 9.77906 31.142 10 31.9971 10C32.8523 10 33.6929 9.77906 34.4375 9.35856C35.1822 8.93806 35.8055 8.3323 36.2471 7.6L53.3081 18.328C53.1093 18.8633 53.0047 19.429 52.9991 20C53.0006 21.1522 53.3992 22.2687 54.1278 23.1613C54.8565 24.0538 55.8705 24.6679 56.9991 24.9V41.1C55.8705 41.3321 54.8565 41.9462 54.1278 42.8387C53.3992 43.7313 53.0006 44.8478 52.9991 46C53.0057 46.4659 53.0784 46.9285 53.2151 47.374L36.3451 56.576ZM57.9991 49C57.4058 49 56.8258 48.8241 56.3324 48.4944C55.8391 48.1648 55.4545 47.6962 55.2275 47.148C55.0004 46.5999 54.941 45.9967 55.0568 45.4147C55.1725 44.8328 55.4582 44.2982 55.8778 43.8787C56.2974 43.4591 56.8319 43.1734 57.4138 43.0576C57.9958 42.9419 58.599 43.0013 59.1472 43.2284C59.6953 43.4554 60.1639 43.8399 60.4935 44.3333C60.8232 44.8266 60.9991 45.4067 60.9991 46C60.9991 46.7956 60.683 47.5587 60.1204 48.1213C59.5578 48.6839 58.7948 49 57.9991 49Z" fill="currentColor" />
    <path d="M24.8756 31.051C24.2244 30.8377 23.6537 30.4307 23.2398 29.8845C22.826 29.3382 22.5887 28.6787 22.5596 27.994C22.5588 27.7288 22.4527 27.4748 22.2646 27.2878C22.0765 27.1008 21.8219 26.9962 21.5566 26.997C21.2914 26.9978 21.0374 27.1039 20.8504 27.292C20.6634 27.4801 20.5588 27.7348 20.5596 28C20.5839 28.7656 20.7692 29.5175 21.1034 30.2067C21.4377 30.8959 21.9134 31.507 22.4996 32C21.9129 32.4928 21.4366 33.1037 21.1018 33.7929C20.767 34.4821 20.5812 35.2342 20.5566 36C20.5566 36.2639 20.6609 36.517 20.8467 36.7043C21.0325 36.8916 21.2848 36.9979 21.5486 37H21.5566C21.82 37 22.0727 36.8962 22.2599 36.711C22.4471 36.5259 22.5537 36.2743 22.5566 36.011C22.5856 35.3262 22.8229 34.6665 23.2367 34.1201C23.6506 33.5736 24.2213 33.1665 24.8726 32.953C25.0727 32.8873 25.2469 32.76 25.3704 32.5894C25.4939 32.4188 25.5604 32.2136 25.5604 32.003C25.5604 31.7924 25.4939 31.5872 25.3704 31.4166C25.2469 31.246 25.0727 31.1188 24.8726 31.053L24.8756 31.051Z" fill="currentColor" />
    <path d="M49.0203 27.192C49.3891 25.4951 49.1409 23.7224 48.3203 22.192C47.767 21.1827 46.9871 20.3155 46.0419 19.6586C45.0968 19.0016 44.0121 18.5729 42.8733 18.406C42.5329 17.1445 41.7873 16.0298 40.7511 15.2336C39.715 14.4375 38.4459 14.004 37.1393 14C36.1524 13.9212 35.1619 14.0966 34.2621 14.5093C33.3623 14.9221 32.5832 15.5586 31.9993 16.358C31.4153 15.5586 30.6363 14.9221 29.7365 14.5093C28.8367 14.0966 27.8461 13.9212 26.8593 14C25.5514 14.0035 24.281 14.4373 23.2442 15.2345C22.2074 16.0317 21.4617 17.148 21.1223 18.411C19.9834 18.5783 18.8989 19.0076 17.9541 19.6651C17.0093 20.3226 16.2299 21.1903 15.6773 22.2C14.8581 23.7287 14.61 25.4991 14.9773 27.194C14.3021 27.7906 13.7727 28.534 13.4297 29.3672C13.0868 30.2003 12.9396 31.101 12.9993 32C12.94 32.8994 13.0875 33.8003 13.4306 34.6338C13.7736 35.4672 14.3031 36.211 14.9783 36.808C14.6107 38.5033 14.8589 40.2741 15.6783 41.803C16.2316 42.8123 17.0115 43.6796 17.9566 44.3365C18.9018 44.9934 19.9864 45.4222 21.1253 45.589C21.4647 46.8515 22.21 47.9673 23.2462 48.7644C24.2824 49.5615 25.552 49.9957 26.8593 50C27.8461 50.0788 28.8367 49.9035 29.7365 49.4907C30.6363 49.0779 31.4153 48.4414 31.9993 47.642C32.5832 48.4414 33.3623 49.0779 34.2621 49.4907C35.1619 49.9035 36.1524 50.0788 37.1393 50C38.4471 49.9965 39.7175 49.5627 40.7544 48.7655C41.7912 47.9683 42.5369 46.8521 42.8763 45.589C44.0151 45.4217 45.0996 44.9924 46.0444 44.335C46.9893 43.6775 47.7686 42.8098 48.3213 41.8C49.1404 40.2714 49.3886 38.501 49.0213 36.806C49.6965 36.2095 50.2259 35.4661 50.5688 34.6329C50.9117 33.7997 51.059 32.899 50.9993 32C51.0586 31.1007 50.911 30.1997 50.568 29.3663C50.2249 28.5328 49.6955 27.789 49.0203 27.192V27.192ZM26.8593 48C25.8804 47.9849 24.9394 47.6191 24.2072 46.9692C23.4751 46.3192 23.0003 45.4282 22.8693 44.458C22.7591 43.9969 22.7053 43.5241 22.7093 43.05C22.6543 41.8315 23.0307 40.6325 23.7723 39.664C23.864 39.5637 23.9343 39.4457 23.9789 39.3172C24.0235 39.1888 24.0414 39.0526 24.0316 38.9169C24.0218 38.7813 23.9844 38.6491 23.9217 38.5285C23.8591 38.4078 23.7724 38.3012 23.6672 38.2151C23.5619 38.129 23.4402 38.0653 23.3095 38.0279C23.1788 37.9905 23.0418 37.9801 22.9069 37.9974C22.7721 38.0147 22.6421 38.0594 22.5251 38.1286C22.4081 38.1978 22.3064 38.2902 22.2263 38.4C21.1894 39.7233 20.6522 41.3698 20.7093 43.05C20.7093 43.181 20.7253 43.303 20.7303 43.432C20.0403 43.2581 19.3937 42.9434 18.8312 42.5076C18.2686 42.0719 17.8022 41.5246 17.4613 40.9C16.9591 39.9581 16.7423 38.8902 16.8373 37.827C17.298 37.98 17.7767 38.0725 18.2613 38.102H18.2903C18.5555 38.1065 18.8116 38.0055 19.0024 37.8211C19.1931 37.6368 19.3028 37.3842 19.3073 37.119C19.3118 36.8538 19.2108 36.5977 19.0264 36.4069C18.8421 36.2162 18.5895 36.1065 18.3243 36.102C17.7297 36.051 17.1545 35.8654 16.6423 35.559C16.0748 35.1673 15.6229 34.6303 15.3339 34.0043C15.0449 33.3782 14.9293 32.686 14.9993 32C14.9295 31.3145 15.0449 30.6229 15.3336 29.9972C15.6222 29.3716 16.0735 28.8348 16.6403 28.443C17.1529 28.1367 17.7284 27.9507 18.3233 27.899C18.5873 27.8901 18.8371 27.7772 19.0181 27.5847C19.1991 27.3923 19.2966 27.1361 19.2893 26.872C19.2871 26.7402 19.2586 26.6102 19.2055 26.4896C19.1524 26.369 19.0757 26.2602 18.9799 26.1696C18.8841 26.0791 18.7712 26.0086 18.6478 25.9623C18.5244 25.916 18.393 25.8948 18.2613 25.9C17.7767 25.9296 17.298 26.022 16.8373 26.175C16.7426 25.1123 16.959 24.0449 17.4603 23.103C17.8012 22.4779 18.2676 21.93 18.8303 21.4938C19.3931 21.0575 20.0399 20.7424 20.7303 20.568C20.7253 20.696 20.7093 20.819 20.7093 20.95C20.6522 22.6302 21.1894 24.2767 22.2263 25.6C22.3965 25.7982 22.6376 25.9219 22.8979 25.9447C23.1582 25.9674 23.417 25.8874 23.619 25.7217C23.8211 25.556 23.9502 25.3178 23.9789 25.0581C24.0075 24.7984 23.9333 24.5378 23.7723 24.332C23.0316 23.3646 22.6552 22.1672 22.7093 20.95C22.7059 20.4667 22.7617 19.9848 22.8753 19.515C23.0099 18.5498 23.4857 17.6647 24.2165 17.0199C24.9473 16.3752 25.8848 16.0134 26.8593 16C29.6843 16 30.9993 17.3 30.9993 20.1V27.054C30.1608 26.2034 29.1521 25.5396 28.0393 25.106C27.7889 25.0185 27.514 25.034 27.2751 25.1492C27.0362 25.2643 26.8528 25.4697 26.7653 25.72C26.6778 25.9704 26.6933 26.2453 26.8084 26.4842C26.9236 26.7231 27.1289 26.9065 27.3793 26.994C27.4153 27.006 30.9993 28.3 30.9993 32C30.9616 33.0997 30.5971 34.1632 29.9523 35.0548C29.3076 35.9464 28.4118 36.6257 27.3793 37.006C27.2553 37.0494 27.1411 37.1167 27.0431 37.2042C26.9452 37.2916 26.8654 37.3976 26.8084 37.5159C26.7514 37.6342 26.7183 37.7625 26.7108 37.8936C26.7034 38.0248 26.7219 38.1561 26.7653 38.28C26.8086 38.404 26.8759 38.5182 26.9634 38.6162C27.0509 38.7141 27.1568 38.7939 27.2751 38.8509C27.3934 38.9079 27.5218 38.941 27.6529 38.9485C27.784 38.9559 27.9153 38.9374 28.0393 38.894C29.1521 38.4604 30.1608 37.7966 30.9993 36.946V43.9C30.9993 46.7 29.6843 48 26.8593 48ZM46.5383 40.9C46.1974 41.5251 45.7309 42.073 45.1682 42.5093C44.6055 42.9455 43.9586 43.2607 43.2683 43.435C43.2733 43.307 43.2893 43.184 43.2893 43.053C43.347 41.3718 42.8098 39.7241 41.7723 38.4C41.6901 38.2951 41.5879 38.2077 41.4715 38.1429C41.3551 38.078 41.2269 38.0371 41.0945 38.0225C40.9621 38.0079 40.828 38.0199 40.7003 38.0578C40.5726 38.0957 40.4537 38.1588 40.3507 38.2433C40.2477 38.3278 40.1626 38.432 40.1004 38.5498C40.0383 38.6677 40.0003 38.7967 39.9887 38.9295C39.9771 39.0622 39.9921 39.1959 40.0329 39.3227C40.0737 39.4496 40.1395 39.5669 40.2263 39.668C40.967 40.6354 41.3433 41.8328 41.2893 43.05C41.2926 43.5333 41.2369 44.0152 41.1233 44.485C40.9886 45.4502 40.5128 46.3353 39.782 46.9801C39.0512 47.6249 38.1137 47.9867 37.1393 48C34.3143 48 32.9993 46.7 32.9993 43.9V36.946C33.8377 37.7966 34.8464 38.4604 35.9593 38.894C36.0832 38.9374 36.2145 38.9559 36.3457 38.9485C36.4768 38.941 36.6051 38.9079 36.7234 38.8509C36.8417 38.7939 36.9477 38.7141 37.0351 38.6162C37.1226 38.5182 37.1899 38.404 37.2333 38.28C37.2766 38.1561 37.2951 38.0248 37.2877 37.8936C37.2803 37.7625 37.2471 37.6342 37.1901 37.5159C37.1331 37.3976 37.0534 37.2916 36.9554 37.2042C36.8575 37.1167 36.7432 37.0494 36.6193 37.006C36.5833 36.994 32.9993 35.7 32.9993 32C33.037 30.9004 33.4015 29.8369 34.0462 28.9452C34.691 28.0536 35.5868 27.3743 36.6193 26.994C36.8696 26.9065 37.075 26.7231 37.1901 26.4842C37.3053 26.2453 37.3208 25.9704 37.2333 25.72C37.1458 25.4697 36.9624 25.2643 36.7234 25.1492C36.4845 25.034 36.2096 25.0185 35.9593 25.106C34.8464 25.5396 33.8377 26.2034 32.9993 27.054V20.1C32.9993 17.3 34.3143 16 37.1393 16C38.1182 16.0151 39.0592 16.3809 39.7913 17.0309C40.5235 17.6808 40.9982 18.5718 41.1293 19.542C41.2395 20.0031 41.2932 20.4759 41.2893 20.95C41.3443 22.1686 40.9679 23.3675 40.2263 24.336C40.0756 24.5426 40.0098 24.799 40.0424 25.0526C40.0749 25.3062 40.2033 25.5376 40.4013 25.6995C40.5992 25.8613 40.8516 25.9412 41.1066 25.9227C41.3616 25.9042 41.5998 25.7887 41.7723 25.6C42.8092 24.2767 43.3463 22.6302 43.2893 20.95C43.2893 20.819 43.2733 20.697 43.2683 20.568C43.9583 20.742 44.6048 21.0567 45.1674 21.4924C45.7299 21.9281 46.1963 22.4755 46.5373 23.1C47.0394 24.042 47.2563 25.1098 47.1613 26.173C46.7005 26.02 46.2219 25.9276 45.7373 25.898C45.4721 25.8897 45.2144 25.987 45.0209 26.1686C44.8275 26.3503 44.7141 26.6013 44.7058 26.8665C44.6974 27.1317 44.7948 27.3894 44.9764 27.5829C45.158 27.7763 45.4091 27.8897 45.6743 27.898C46.2689 27.949 46.8441 28.1347 47.3563 28.441C47.9238 28.8328 48.3756 29.3697 48.6646 29.9958C48.9537 30.6218 49.0692 31.314 48.9993 32C49.0691 32.6855 48.9536 33.3772 48.665 34.0028C48.3763 34.6285 47.9251 35.1652 47.3583 35.557C46.8456 35.8633 46.2702 36.0493 45.6753 36.101C45.4101 36.1054 45.1574 36.2149 44.973 36.4056C44.7886 36.5962 44.6874 36.8523 44.6918 37.1175C44.6962 37.3827 44.8057 37.6354 44.9963 37.8198C45.187 38.0042 45.4431 38.1054 45.7083 38.101H45.7373C46.2219 38.0715 46.7005 37.979 47.1613 37.826C47.2564 38.8894 47.0399 39.9575 46.5383 40.9Z" fill="currentColor" />
    <path d="M43.4393 28C43.4393 27.7362 43.335 27.483 43.1492 27.2957C42.9634 27.1084 42.7111 27.0021 42.4473 27H42.4393C42.176 27 41.9233 27.1038 41.7361 27.289C41.5488 27.4742 41.4422 27.7257 41.4393 27.989C41.4103 28.6738 41.173 29.3335 40.7592 29.8799C40.3454 30.4264 39.7747 30.8335 39.1233 31.047C38.9232 31.1128 38.749 31.24 38.6255 31.4106C38.502 31.5812 38.4355 31.7864 38.4355 31.997C38.4355 32.2076 38.502 32.4128 38.6255 32.5834C38.749 32.754 38.9232 32.8812 39.1233 32.947C39.7746 33.1603 40.3453 33.5673 40.7591 34.1135C41.1729 34.6598 41.4102 35.3193 41.4393 36.004C41.4401 36.2692 41.5462 36.5233 41.7343 36.7102C41.9224 36.8972 42.1771 37.0018 42.4423 37.001C42.7075 37.0002 42.9616 36.8941 43.1485 36.706C43.3355 36.5179 43.4401 36.2632 43.4393 35.998C43.4148 35.2327 43.2294 34.4812 42.8951 33.7924C42.5609 33.1035 42.0853 32.4928 41.4993 32C42.0855 31.507 42.5613 30.8959 42.8955 30.2067C43.2298 29.5175 43.4151 28.7656 43.4393 28Z" fill="currentColor" />
  </g>
  <defs>
    <clipPath id="clip0_2254_70388">
      <rect width="64" height="64" fill="currentColor" />
    </clipPath>
  </defs>
</svg>