<?xml version="1.0" encoding="UTF-8"?>
<svg width="64" height="64" viewBox="0 0 64 64" fill="currentColor" xmlns="http://www.w3.org/2000/svg">
  <path d="M40 48H24C23.4696 48 22.9609 48.2107 22.5858 48.5858C22.2107 48.9609 22 49.4696 22 50C22 50.5304 22.2107 51.0391 22.5858 51.4142C22.9609 51.7893 23.4696 52 24 52H40C40.5304 52 41.0391 51.7893 41.4142 51.4142C41.7893 51.0391 42 50.5304 42 50C42 49.4696 41.7893 48.9609 41.4142 48.5858C41.0391 48.2107 40.5304 48 40 48Z" fill="currentColor" />
  <path d="M38 56H26C25.4696 56 24.9609 56.2107 24.5858 56.5858C24.2107 56.9609 24 57.4696 24 58C24 58.5304 24.2107 59.0391 24.5858 59.4142C24.9609 59.7893 25.4696 60 26 60H38C38.5304 60 39.0391 59.7893 39.4142 59.4142C39.7893 59.0391 40 58.5304 40 58C40 57.4696 39.7893 56.9609 39.4142 56.5858C39.0391 56.2107 38.5304 56 38 56Z" fill="currentColor" />
  <path d="M32 4C27.3828 4.00024 22.8827 5.45307 19.1371 8.15273C15.3914 10.8524 12.59 14.6621 11.1296 19.0422C9.66914 23.4223 9.62376 28.1509 10.9998 32.5582C12.3759 36.9656 15.1037 40.8283 18.7969 43.5994C19.1434 43.8596 19.565 44.0003 19.9983 44.0002H44.0017C44.435 44.0003 44.8567 43.8596 45.2031 43.5994C48.8963 40.8283 51.6241 36.9656 53.0002 32.5582C54.3762 28.1509 54.3309 23.4223 52.8704 19.0422C51.41 14.6621 48.6086 10.8524 44.8629 8.15273C41.1173 5.45307 36.6172 4.00024 32 4Z" fill="currentColor" />
</svg>