<svg width="22" height="30" viewBox="0 0 22 30" fill="currentColor" xmlns="http://www.w3.org/2000/svg">
  <path d="M21.9736 13.7705C21.936 13.6104 21.8596 13.4621 21.751 13.3387C21.6424 13.2152 21.5051 13.1204 21.3512 13.0627L14.1474 10.3613L15.9806 1.19512C16.0233 0.981769 15.9952 0.760328 15.9006 0.564384C15.8061 0.36844 15.6502 0.208683 15.4566 0.109345C15.263 0.0100061 15.0423 -0.0234938 14.828 0.0139263C14.6137 0.0513463 14.4174 0.157645 14.2689 0.316698L0.26895 15.3167C0.156771 15.4369 0.0759557 15.5829 0.0336593 15.7418C-0.00863709 15.9006 -0.0111099 16.0675 0.02646 16.2275C0.0640299 16.3876 0.140484 16.5359 0.249052 16.6594C0.35762 16.7828 0.494953 16.8776 0.648894 16.9354L7.85269 19.6368L6.01944 28.8029C5.97675 29.0163 6.00482 29.2377 6.09938 29.4337C6.19395 29.6296 6.34984 29.7894 6.54342 29.8888C6.737 29.9881 6.9577 30.0216 7.17204 29.9842C7.38638 29.9467 7.58266 29.8404 7.73111 29.6813L21.7311 14.6813C21.8433 14.5611 21.9241 14.4151 21.9664 14.2563C22.0087 14.0974 22.0112 13.9306 21.9736 13.7705V13.7705Z" fill="currentColor" />
</svg>