<svg width="24" height="24" viewBox="0 0 24 24" fill="none" xmlns="http://www.w3.org/2000/svg">
<path d="M18.75 21H14.1131C14.8932 20.3046 15.629 19.5609 16.316 18.7734C18.8896 15.8136 20.25 12.6934 20.25 9.75C20.25 7.56196 19.3808 5.46354 17.8336 3.91637C16.2865 2.36919 14.188 1.5 12 1.5C9.81196 1.5 7.71354 2.36919 6.16637 3.91637C4.61919 5.46354 3.75 7.56196 3.75 9.75C3.75 12.6934 5.11038 15.8136 7.68402 18.7734C8.37102 19.5609 9.10676 20.3046 9.8869 21H5.25C5.05109 21 4.86032 21.079 4.71967 21.2197C4.57902 21.3603 4.5 21.5511 4.5 21.75C4.5 21.9489 4.57902 22.1397 4.71967 22.2803C4.86032 22.421 5.05109 22.5 5.25 22.5H18.75C18.9489 22.5 19.1397 22.421 19.2803 22.2803C19.421 22.1397 19.5 21.9489 19.5 21.75C19.5 21.5511 19.421 21.3603 19.2803 21.2197C19.1397 21.079 18.9489 21 18.75 21ZM12 6.75C12.5934 6.75 13.1734 6.92595 13.6667 7.25559C14.1601 7.58524 14.5446 8.05377 14.7717 8.60195C14.9987 9.15013 15.0581 9.75333 14.9424 10.3353C14.8266 10.9172 14.5409 11.4518 14.1213 11.8713C13.7018 12.2909 13.1672 12.5766 12.5853 12.6924C12.0034 12.8081 11.4002 12.7487 10.852 12.5216C10.3038 12.2946 9.83526 11.9101 9.50561 11.4167C9.17597 10.9234 9.00002 10.3433 9.00002 9.75C9.00002 9.35603 9.07761 8.96592 9.22838 8.60194C9.37914 8.23797 9.60012 7.90725 9.87869 7.62867C10.1573 7.3501 10.488 7.12912 10.852 6.97835C11.2159 6.82759 11.6061 6.75 12 6.75Z" fill="#D9231D"/>
</svg>
