<?xml version="1.0" encoding="UTF-8"?>
<svg width="39" height="32" viewBox="0 0 39 32" fill="currentColor" xmlns="http://www.w3.org/2000/svg">
  <path fill-rule="evenodd" clip-rule="evenodd" d="M13.1453 4.57143V0C8.90877 1.02961 5.74213 3.35648 3.64527 6.9807C1.54841 10.6049 0.5 15.5264 0.5 21.7452L0.5 32H14.75L14.75 18.2857H8.65203V16.8649C8.65203 13.5289 9.02646 10.8417 9.77534 8.80309C10.5242 6.76447 11.6475 5.35393 13.1453 4.57143ZM36.8953 4.57143V0C32.6588 1.02961 29.4922 3.35648 27.3953 6.9807C25.2984 10.6049 24.25 15.5264 24.25 21.7452V32L38.5 32L38.5 18.2857H32.4021V16.8649C32.4021 13.5289 32.7765 10.8417 33.5254 8.80309C34.2742 6.76447 35.3975 5.35393 36.8953 4.57143Z" fill="currentColor" />
</svg>