<svg width="64" height="64" viewBox="0 0 64 64" fill="currentColor" xmlns="http://www.w3.org/2000/svg">
  <g clip-path="url(#clip0_2254_70383)">
    <path d="M6.25 35.8872C5.56006 35.8872 5 36.4473 5 37.1372C5 37.8272 5.56006 38.3872 6.25 38.3872C6.93995 38.3872 7.5 37.8272 7.5 37.1372C7.5 36.4473 6.93995 35.8872 6.25 35.8872Z" fill="currentColor" />
    <path d="M57.4523 40.2217L45.6681 44.273C45.7203 43.9829 45.7496 43.687 45.7496 43.3867C45.7496 40.6299 43.5069 38.3867 40.7496 38.3867H32.6548C32.44 38.3867 32.2281 38.3316 32.0411 38.2261L25.4371 34.5117C24.1314 33.7759 22.6475 33.3867 21.146 33.3867H12.2847C11.7691 31.9321 10.3794 30.8872 8.75002 30.8872H1.25C0.559571 30.8872 0 31.4468 0 32.1372V54.6368C0 55.3272 0.559571 55.8868 1.25 55.8868H8.75002C10.3423 55.8868 11.7075 54.8863 12.2495 53.481C13.6646 53.6568 15.3018 54.0752 16.3306 54.6924L22.8677 58.6148C25.3443 60.1011 28.1797 60.8868 31.0684 60.8868C33.3575 60.8868 35.5753 60.4063 37.6607 59.459L60.9913 49.1861C63.5753 48.1377 64.8512 45.0376 63.3741 42.3052C62.2877 40.2945 59.7433 39.3999 57.4523 40.2217V40.2217ZM10 52.1426C9.99709 52.8291 9.43703 53.3868 8.75002 53.3868H2.5V33.3872H8.75002C9.43898 33.3872 10 33.9478 10 34.6372V52.1426ZM60.0416 46.8741C60.0284 46.8789 60.0153 46.8848 60.0021 46.8902C60.0021 46.8902 36.6368 57.1783 36.6324 57.1802C34.8721 57.981 33.0001 58.3868 31.0684 58.3868C28.6329 58.3868 26.2422 57.7247 24.1543 56.4712L17.6167 52.5489C16.2173 51.7095 14.2134 51.1978 12.5 50.9927V35.8872H21.146C22.2183 35.8872 23.2779 36.1646 24.211 36.6904L30.815 40.4048C31.3746 40.7202 32.0113 40.8872 32.6548 40.8872H40.7496C42.128 40.8872 43.2496 42.0083 43.2496 43.3872C43.2496 44.7608 42.1275 45.8872 40.7496 45.8872H28.0425C27.3521 45.8872 26.7925 46.4468 26.7925 47.1372C26.7925 47.8272 27.3521 48.3868 28.0425 48.3868H40.7496C41.5694 48.3868 42.3765 48.1831 43.0929 47.8013C43.0929 47.8013 58.2858 42.5786 58.2916 42.5767C59.4117 42.1724 60.6783 42.5747 61.1749 43.4937C61.9196 44.8711 61.3038 46.3687 60.0416 46.8741V46.8741Z" fill="currentColor" />
    <path d="M36.4063 33.4443C36.6417 33.6479 36.9332 33.7495 37.2252 33.7495C37.5172 33.7495 37.8092 33.6479 38.044 33.4443C48.2428 24.6054 54.5514 20.1323 54.5514 13.1811C54.5514 7.68208 50.6583 3.12494 45.1891 3.12494C41.5973 3.12494 38.8468 5.19526 37.0753 8.30219C35.3077 5.20209 32.5601 3.12494 28.963 3.12494C24.7759 3.12494 21.2755 5.83832 20.045 10.0371C19.8506 10.6997 20.2305 11.394 20.8931 11.5883C21.5557 11.7827 22.2501 11.4028 22.4439 10.7402C23.3546 7.63276 25.9132 5.62494 28.963 5.62494C32.5289 5.62494 35.0304 8.79145 35.8707 11.7397C36.0206 12.2812 36.5138 12.6562 37.0753 12.6562C37.6373 12.6562 38.13 12.2812 38.2799 11.7397C38.297 11.6787 40.0333 5.62494 45.1891 5.62494C49.1012 5.62494 52.0514 8.873 52.0514 13.1811C52.0514 18.7417 46.6158 22.7505 37.2242 30.8481C31.502 25.9341 26.9566 22.4751 24.3731 19.0913C23.9542 18.5424 23.17 18.437 22.6212 18.8559C22.0723 19.2749 21.9673 20.0591 22.3858 20.6084C25.2979 24.4223 30.2139 28.0766 36.4063 33.4443V33.4443Z" fill="currentColor" />
    <path d="M21.125 14.1371C20.4351 14.1371 19.875 14.6972 19.875 15.3871C19.875 16.0771 20.4351 16.6372 21.125 16.6372C21.8149 16.6372 22.375 16.0771 22.375 15.3871C22.375 14.6972 21.8149 14.1371 21.125 14.1371Z" fill="currentColor" />
  </g>
  <defs>
    <clipPath id="clip0_2254_70383">
      <rect width="64" height="64" fill="currentColor" />
    </clipPath>
  </defs>
</svg>