<svg width="25" height="24" viewBox="0 0 25 24" fill="currentColor" xmlns="http://www.w3.org/2000/svg">
  <path d="M21.3098 14.8525L16.9188 12.9706C16.6895 12.8719 16.4392 12.8322 16.1907 12.855C15.9421 12.8779 15.7032 12.9626 15.4958 13.1014L13.148 14.6664C11.7131 13.9685 10.5518 12.8123 9.84753 11.3805L9.84771 11.3803L11.4072 8.99734C11.543 8.79047 11.6253 8.55318 11.6469 8.30669C11.6685 8.0602 11.6287 7.8122 11.531 7.58487L9.6474 3.19006C9.51918 2.89174 9.29778 2.64298 9.01635 2.48103C8.73492 2.31907 8.4086 2.25263 8.08624 2.29166C6.81956 2.45452 5.65548 3.07296 4.81148 4.03144C3.96749 4.98992 3.50129 6.22289 3.5 7.5C3.5 14.944 9.55603 21 17 21C18.2771 20.9987 19.5101 20.5325 20.4686 19.6885C21.4271 18.8445 22.0455 17.6804 22.2083 16.4137C22.2473 16.0913 22.1808 15.765 22.0188 15.4836C21.8568 15.2022 21.6081 14.9808 21.3098 14.8525Z" />
  <path d="M15.2521 4.47455C16.3963 4.78221 17.4396 5.38515 18.2774 6.22297C19.1152 7.0608 19.7182 8.10407 20.0258 9.24829C20.0775 9.44008 20.2032 9.60353 20.3752 9.70277C20.5473 9.80202 20.7517 9.82895 20.9436 9.77767C21.1355 9.72639 21.2992 9.60107 21.3988 9.42922C21.4984 9.25737 21.5258 9.05303 21.4749 8.86102C21.0988 7.4623 20.3618 6.18697 19.3376 5.16279C18.3134 4.13862 17.0381 3.40156 15.6393 3.02545C15.4473 2.97457 15.243 3.00194 15.0711 3.10155C14.8993 3.20116 14.774 3.36487 14.7227 3.55677C14.6714 3.74867 14.6983 3.95307 14.7976 4.12513C14.8968 4.29719 15.0603 4.42285 15.2521 4.47454L15.2521 4.47455Z" />
  <path d="M14.4747 7.37301C15.1104 7.54394 15.6899 7.87889 16.1553 8.34432C16.6208 8.80974 16.9557 9.3893 17.1267 10.0249C17.1783 10.2167 17.304 10.3802 17.4761 10.4794C17.6481 10.5787 17.8525 10.6056 18.0444 10.5543C18.2363 10.503 18.4 10.3777 18.4996 10.2059C18.5993 10.034 18.6266 9.82967 18.5757 9.63766C18.3364 8.74751 17.8673 7.93589 17.2156 7.2841C16.5638 6.63232 15.7521 6.16326 14.862 5.92392C14.67 5.87304 14.4656 5.90041 14.2938 6.00002C14.122 6.09963 13.9966 6.26334 13.9454 6.45524C13.8941 6.64714 13.921 6.85154 14.0202 7.0236C14.1195 7.19566 14.2829 7.32132 14.4747 7.37301L14.4747 7.37301Z" />
</svg>