<?xml version="1.0" encoding="UTF-8"?>
<svg width="48" height="33" viewBox="0 0 48 33" fill="currentColor" xmlns="http://www.w3.org/2000/svg">
  <path d="M37.452 21C35.3753 21 33.3452 20.3842 31.6185 19.2304C29.8918 18.0767 28.546 16.4368 27.7513 14.5182C26.9565 12.5996 26.7486 10.4883 27.1538 8.45155C27.5589 6.41475 28.5589 4.54383 30.0274 3.07538C31.4958 1.60693 33.3668 0.606895 35.4036 0.201752C37.4404 -0.203392 39.5516 0.00453949 41.4702 0.799263C43.3888 1.59398 45.0287 2.93979 46.1824 4.66651C47.3362 6.39322 47.952 8.42329 47.952 10.5L48 12C48 17.5695 45.7875 22.911 41.8492 26.8492C37.911 30.7875 32.5695 33 27 33V27C28.9707 27.0053 30.9229 26.6199 32.7437 25.866C34.5645 25.1121 36.2178 24.0048 37.608 22.608C38.1483 22.0687 38.6468 21.489 39.099 20.874C38.562 20.958 38.013 21.003 37.455 21.003L37.452 21ZM10.452 21C8.3753 21 6.34523 20.3842 4.61851 19.2304C2.8918 18.0767 1.54599 16.4368 0.751266 14.5182C-0.043457 12.5996 -0.251392 10.4883 0.153755 8.45155C0.558899 6.41475 1.55893 4.54383 3.02738 3.07538C4.49583 1.60693 6.36675 0.606895 8.40355 0.201752C10.4404 -0.203392 12.5516 0.00453949 14.4702 0.799263C16.3888 1.59398 18.0287 2.93979 19.1824 4.66651C20.3362 6.39322 20.952 8.42329 20.952 10.5L21 12C21 17.5695 18.7875 22.911 14.8492 26.8492C10.911 30.7875 5.56955 33 0 33V27C1.9707 27.0053 3.92289 26.6199 5.7437 25.866C7.56451 25.1121 9.21781 24.0048 10.608 22.608C11.1483 22.0687 11.6468 21.489 12.099 20.874C11.562 20.958 11.013 21.003 10.452 21.003V21Z" fill="#EEBDBD" />
</svg>