<svg width="64" height="64" viewBox="0 0 64 64" fill="currentColor" xmlns="http://www.w3.org/2000/svg">
  <path d="M46.489 30.2998C46.1034 27.532 44.2505 25.1952 41.6413 24.1893C39.0317 23.183 36.0901 23.675 33.95 25.475L31.8546 27.2369L29.7596 25.4673C27.6195 23.675 24.6698 23.183 22.0679 24.1815C19.459 25.1874 17.6062 27.5246 17.2206 30.2924V30.3223C16.5699 36.2292 16.645 42.0148 17.4472 47.5057C17.4472 47.5131 17.4472 47.5205 17.4546 47.5283V47.5516C17.8176 49.5552 19.5725 50.9848 21.5688 50.9848C21.7356 50.9848 21.8942 50.9767 22.0605 50.9545C22.4916 50.9016 22.8927 50.7885 23.2705 50.6218L23.4139 56.339C23.4298 57.0351 24.0047 57.5948 24.7001 57.5948H24.73C25.4413 57.58 26.001 56.9893 25.9858 56.2784L25.7511 46.9161C25.7511 46.8026 25.7511 46.6887 25.7433 46.5682C25.7433 46.5453 25.7359 46.5301 25.7359 46.5153L25.3958 33.0835C25.3803 32.3723 24.791 31.8125 24.0801 31.8277C23.3692 31.8425 22.8095 32.4325 22.8243 33.1434L23.1725 46.9002C23.1267 47.6721 22.537 48.3153 21.7585 48.4059C20.9189 48.5039 20.147 47.9368 19.9888 47.105C19.2243 41.8488 19.1492 36.3046 19.7766 30.6325C20.0335 28.8026 21.2664 27.2447 22.9984 26.5789C24.73 25.9135 26.6894 26.2388 28.1112 27.4336L31.0302 29.8987C31.0376 29.9072 31.0531 29.9146 31.0609 29.922C31.0757 29.9368 31.0908 29.9445 31.1056 29.9593C31.1285 29.9748 31.1515 29.9896 31.174 30.0052C31.1892 30.0125 31.1969 30.0199 31.2117 30.0277C31.2494 30.0506 31.2875 30.0654 31.3248 30.0883C31.333 30.0883 31.333 30.0883 31.3407 30.0957C31.3781 30.1109 31.4088 30.126 31.4461 30.1412C31.4539 30.1412 31.469 30.1486 31.4768 30.1486C31.5071 30.156 31.5367 30.1637 31.5674 30.1711C31.5821 30.1711 31.5895 30.1785 31.6047 30.1785C31.6354 30.1867 31.6653 30.1867 31.7038 30.1944C31.7112 30.1944 31.726 30.1944 31.7337 30.2018C31.7788 30.2092 31.8165 30.2092 31.862 30.2092C31.9078 30.2092 31.9452 30.2092 31.991 30.2018C31.9984 30.2018 32.0136 30.2018 32.021 30.1944C32.0513 30.1867 32.0816 30.1867 32.1193 30.1785C32.1345 30.1785 32.1419 30.1711 32.1574 30.1711C32.1877 30.1637 32.2176 30.156 32.2483 30.1486C32.2557 30.1486 32.2709 30.1412 32.2783 30.1412C32.316 30.126 32.3459 30.1186 32.384 30.0957C32.3918 30.0957 32.3918 30.0957 32.3992 30.0883C32.4372 30.0728 32.4749 30.0506 32.5123 30.0277C32.5282 30.0199 32.543 30.0125 32.5507 30.0052C32.5729 29.9896 32.5955 29.9748 32.6184 29.9593C32.6339 29.9519 32.6487 29.9368 32.6638 29.922C32.6716 29.9146 32.6868 29.9072 32.6942 29.8987L35.6136 27.4336C37.035 26.2388 38.994 25.9135 40.7263 26.5789C42.4576 27.2447 43.6908 28.8026 43.9474 30.6406C44.7119 36.1386 44.6361 41.6743 43.7359 47.0898C43.5844 47.922 42.8058 48.4965 41.9589 48.3985C41.1193 48.2998 40.4912 47.5589 40.537 46.712C40.5444 46.6214 40.537 46.5227 40.5215 46.4395L40.8546 33.3175C40.8698 32.607 40.3101 32.0174 39.5995 32.0015C38.8882 31.9863 38.2979 32.546 38.2831 33.2573L37.7008 56.2869C37.686 56.9974 38.2457 57.5874 38.9566 57.6022H38.9866C39.6827 57.6022 40.2572 57.0503 40.272 56.3467L40.4158 50.6144C40.8017 50.7885 41.2102 50.909 41.6491 50.9619C41.8147 50.9848 41.9821 50.9922 42.1404 50.9922C44.1293 50.9922 45.8919 49.5626 46.2542 47.5589V47.5438C47.208 41.8636 47.2831 36.0632 46.489 30.2998V30.2998Z" fill="currentColor" />
  <path d="M31.8702 22.9032C35.6373 22.9032 38.7002 19.8403 38.7002 16.0743C38.7002 12.3076 35.6373 9.24475 31.8702 9.24475C28.1042 9.24475 25.041 12.3076 25.041 16.0743C25.0336 19.8329 28.1042 22.9032 31.8702 22.9032ZM31.8702 11.8085C34.2229 11.8085 36.1286 13.7216 36.1286 16.0666C36.1286 18.4111 34.2152 20.3242 31.8702 20.3242C29.5261 20.3242 27.6129 18.4111 27.6129 16.0666C27.6129 13.7216 29.5187 11.8085 31.8702 11.8085Z" fill="currentColor" />
  <path d="M17.032 26.5716C17.3946 26.5716 17.7577 26.4126 18.015 26.118C18.4763 25.573 18.4006 24.7638 17.8641 24.3024L14.937 21.837C12.7969 20.0444 9.84677 19.5531 7.24529 20.5512C4.63604 21.5571 2.78318 23.8939 2.39723 26.6625C1.60314 32.4252 1.67893 38.2263 2.62421 43.9058V43.9205C2.98725 45.9254 4.74214 47.3549 6.73882 47.3549C6.90518 47.3549 7.06451 47.3468 7.23013 47.3239C7.66155 47.2717 8.06229 47.1575 8.44011 46.9919L8.58429 52.6788C8.59908 53.3745 9.17357 53.9342 9.86932 53.9342H9.9C10.6113 53.9191 11.171 53.3294 11.1555 52.6185L10.9211 43.2777C10.9211 43.1645 10.9211 43.0588 10.9133 42.9449C10.9133 42.9302 10.9059 42.915 10.9059 42.8928L10.5728 29.4455C10.558 28.7346 9.96839 28.1749 9.25749 28.1897C8.54621 28.2048 7.98651 28.7952 8.00166 29.5058L8.34954 43.2629C8.30444 44.0344 7.71442 44.6773 6.93549 44.7756C6.09593 44.874 5.31664 44.2995 5.15841 43.4673C4.25823 38.0518 4.18244 32.5161 4.94658 27.0181C5.20314 25.1801 6.43641 23.6222 8.16802 22.9564C9.9 22.291 11.859 22.6159 13.2808 23.8107L16.2002 26.2762C16.4501 26.4658 16.7447 26.5716 17.032 26.5716V26.5716Z" fill="currentColor" />
  <path d="M17.0464 19.258C20.8124 19.258 23.8756 16.1948 23.8756 12.4284C23.8756 8.66209 20.8124 5.59924 17.0464 5.59924C13.28 5.59924 10.2168 8.66209 10.2168 12.4284C10.2168 16.1948 13.28 19.258 17.0464 19.258ZM17.0464 8.17115C19.3979 8.17115 21.3037 10.0843 21.3037 12.4284C21.3037 14.7734 19.3906 16.6865 17.0464 16.6865C14.7015 16.6865 12.7883 14.7734 12.7883 12.4284C12.7883 10.0843 14.7015 8.17115 17.0464 8.17115Z" fill="currentColor" />
  <path d="M46.687 19.258C50.4537 19.258 53.5162 16.1948 53.5162 12.4284C53.5162 8.66209 50.4537 5.59924 46.687 5.59924C42.9206 5.59924 39.8574 8.66209 39.8574 12.4284C39.8574 16.1948 42.9206 19.258 46.687 19.258V19.258ZM46.687 8.17115C49.0393 8.17115 50.9454 10.0843 50.9454 12.4284C50.9454 14.7734 49.0312 16.6865 46.687 16.6865C44.3425 16.6865 42.429 14.7734 42.429 12.4284C42.429 10.0843 44.3351 8.17115 46.687 8.17115V8.17115Z" fill="currentColor" />
  <path d="M61.3041 26.6625C60.9189 23.8939 59.0661 21.5571 56.4568 20.5512C53.8476 19.5457 50.9052 20.037 48.7651 21.837L45.8383 24.3024C45.2934 24.7638 45.2258 25.573 45.6868 26.1179C45.9444 26.42 46.3071 26.5716 46.6701 26.5716C46.9651 26.5716 47.2598 26.4732 47.4949 26.2688L50.4139 23.8033C51.8354 22.6085 53.7947 22.2836 55.5267 22.949C57.2583 23.6141 58.4912 25.1723 58.7481 27.01C59.5119 32.5083 59.4365 38.0444 58.5367 43.4599C58.3851 44.291 57.6065 44.8666 56.7589 44.7675C55.9197 44.6699 55.2919 43.9279 55.3374 43.081C55.3448 42.983 55.3374 42.8854 55.3223 42.7937L55.6546 29.5057C55.6705 28.7952 55.1108 28.2048 54.3999 28.1897C53.6882 28.1675 53.0986 28.7346 53.0838 29.4455L52.5016 52.6185C52.4857 53.3294 53.0454 53.9191 53.7563 53.9342H53.7873C54.4827 53.9342 55.0576 53.3819 55.0723 52.6788L55.2165 46.9767C55.6021 47.1501 56.0176 47.2717 56.4568 47.3239C56.6232 47.3468 56.7892 47.3549 56.9481 47.3549C58.9374 47.3549 60.6997 45.9253 61.0627 43.9205V43.9058C62.0306 38.2263 62.1064 32.4252 61.3041 26.6625V26.6625Z" fill="currentColor" />
</svg>