<svg width="10" height="9" viewBox="0 0 10 9" fill="currentColor" xmlns="http://www.w3.org/2000/svg">
  <path d="M0.752195 1.65747L4.18847 7.59467C4.27085 7.73694 4.38918 7.85505 4.5316 7.93716C4.67403 8.01928 4.83554 8.0625 4.99994 8.0625C5.16433 8.0625 5.32584 8.01928 5.46827 7.93716C5.61069 7.85505 5.72902 7.73694 5.8114 7.59467L5.81109 7.59467L9.24768 1.65747C9.33025 1.515 9.37383 1.35328 9.37402 1.18861C9.37422 1.02394 9.33102 0.862124 9.24878 0.719458C9.16654 0.576792 9.04816 0.458313 8.90557 0.375952C8.76297 0.29359 8.60119 0.250253 8.43652 0.250305L1.56335 0.250304C1.39868 0.250253 1.2369 0.293589 1.09431 0.375951C0.95171 0.458313 0.833334 0.576791 0.751094 0.719457C0.668854 0.862123 0.625657 1.02394 0.625849 1.18861C0.626043 1.35328 0.669621 1.515 0.752195 1.65747Z" fill="currentColor" />
</svg>