<svg id="Layer_1" data-name="Layer 1" xmlns="http://www.w3.org/2000/svg" viewBox="0 0 787.62 695.15"><defs><style>.cls-1{fill:#f5d7d7;}.cls-2{fill:#a93030;}.cls-3{fill:#962d2d;}.cls-4{fill:#d9231d;}.cls-5{fill:#7f2828;}</style></defs><circle class="cls-1" cx="457.75" cy="321.1" r="254.81"/><path class="cls-2" d="M347.55,331.88h-153a47.94,47.94,0,0,1-47.95-47.94V52.39A35.65,35.65,0,0,0,111,16.74H12.34a6.15,6.15,0,0,1-6.15-6.15h0a6.15,6.15,0,0,1,6.15-6.15H111a48,48,0,0,1,47.95,48V283.94a35.64,35.64,0,0,0,35.64,35.64h153Z" transform="translate(-6.19 -4.44)"/><path class="cls-3" d="M314.54,345.72H290a10.59,10.59,0,0,1-10.6-10.59V316.34a10.6,10.6,0,0,1,3.72-8.07h0a10.55,10.55,0,0,1,6.87-2.53h24.51Z" transform="translate(-6.19 -4.44)"/><path class="cls-4" d="M371.68,366.61h-49a13.7,13.7,0,0,1-13.7-13.7V298.55a13.69,13.69,0,0,1,13.7-13.69h49Z" transform="translate(-6.19 -4.44)"/><rect class="cls-4" x="329.53" y="320.34" width="95.08" height="10.78" rx="2.67" transform="translate(45.14 698.36) rotate(-90)"/><path class="cls-4" d="M382.46,313.46V299.53h33.32a7,7,0,0,1,7,7h0a7,7,0,0,1-7,7Z" transform="translate(-6.19 -4.44)"/><path class="cls-4" d="M399.09,324.82h7a3.45,3.45,0,0,1,3.45,3.45v36.84a0,0,0,0,1,0,0H395.63a0,0,0,0,1,0,0V328.28A3.45,3.45,0,0,1,399.09,324.82Z" transform="translate(741.38 -62.07) rotate(90)"/><path class="cls-2" d="M371.68,366.61h-49a13.7,13.7,0,0,1-13.7-13.7V298.55a13.69,13.69,0,0,1,13.7-13.69c4.07,58.7,49,64.09,49,64.09Z" transform="translate(-6.19 -4.44)"/><rect class="cls-5" x="328.83" y="323.76" width="81.75" height="3.95" transform="translate(689.24 -48.41) rotate(90)"/><path class="cls-3" d="M351,366.61H322.72a13.7,13.7,0,0,1-13.7-13.7V314.75C309,353.29,351,366.61,351,366.61Z" transform="translate(-6.19 -4.44)"/><rect class="cls-5" x="287.76" y="324.45" width="39.98" height="2.56" transform="translate(627.28 13.55) rotate(90)"/><rect class="cls-5" x="377.93" y="304.06" width="13.93" height="4.88" transform="translate(685.2 -82.84) rotate(90)"/><rect class="cls-5" x="377.93" y="342.53" width="13.93" height="4.88" transform="translate(723.67 -44.37) rotate(90)"/><path class="cls-5" d="M309,345.72H290a10.59,10.59,0,0,1-10.6-10.59V316.34a10.6,10.6,0,0,1,3.72-8.07h0C279.56,337.56,309,342,309,342Z" transform="translate(-6.19 -4.44)"/><path class="cls-2" d="M787.66,699.59h0a6.15,6.15,0,0,1-6.15-6.15V367.53a35.65,35.65,0,0,0-35.65-35.65H584.22v-12.3H745.86a48,48,0,0,1,47.95,47.95V693.44A6.16,6.16,0,0,1,787.66,699.59Z" transform="translate(-6.19 -4.44)"/><path class="cls-3" d="M598.06,345.72h24.51a10.59,10.59,0,0,0,10.6-10.59V316.34a10.6,10.6,0,0,0-3.72-8.07h0a10.6,10.6,0,0,0-6.88-2.53H598.06Z" transform="translate(-6.19 -4.44)"/><path class="cls-4" d="M540.92,366.61h49a13.69,13.69,0,0,0,13.69-13.7V298.55a13.69,13.69,0,0,0-13.69-13.69h-49Z" transform="translate(-6.19 -4.44)"/><rect class="cls-4" x="487.99" y="320.34" width="95.08" height="10.78" rx="2.67" transform="translate(203.61 856.83) rotate(-90)"/><path class="cls-2" d="M540.92,366.61h49a13.69,13.69,0,0,0,13.69-13.7V298.55a13.69,13.69,0,0,0-13.69-13.69c-4.08,58.7-49,64.09-49,64.09Z" transform="translate(-6.19 -4.44)"/><rect class="cls-5" x="502.02" y="323.76" width="81.75" height="3.95" transform="translate(862.44 -221.6) rotate(90)"/><path class="cls-3" d="M561.62,366.61h28.27a13.69,13.69,0,0,0,13.69-13.7V314.75C603.58,353.29,561.62,366.61,561.62,366.61Z" transform="translate(-6.19 -4.44)"/><rect class="cls-5" x="584.87" y="324.45" width="39.98" height="2.56" transform="translate(924.4 -283.56) rotate(90)"/><path class="cls-5" d="M603.58,345.72h19a10.59,10.59,0,0,0,10.6-10.59V316.34a10.6,10.6,0,0,0-3.72-8.07h0C633,337.56,603.58,342,603.58,342Z" transform="translate(-6.19 -4.44)"/><path class="cls-4" d="M487.39,218.5V193.19a3.49,3.49,0,1,1,7,0V218.5a3.49,3.49,0,1,1-7,0Z" transform="translate(-6.19 -4.44)"/><path class="cls-4" d="M519.52,250.63a3.49,3.49,0,0,1,3.48-3.49h25.32a3.49,3.49,0,0,1,0,7H523A3.48,3.48,0,0,1,519.52,250.63Z" transform="translate(-6.19 -4.44)"/><path class="cls-4" d="M510.62,227.4a3.47,3.47,0,0,1,1-2.46L529,207.55a3.49,3.49,0,1,1,4.93,4.93l-17.39,17.39a3.49,3.49,0,0,1-6-2.47Z" transform="translate(-6.19 -4.44)"/><path class="cls-4" d="M409,433v25.32a3.48,3.48,0,0,1-7,0V433a3.48,3.48,0,0,1,7,0Z" transform="translate(-6.19 -4.44)"/><path class="cls-4" d="M376.87,400.83a3.49,3.49,0,0,1-3.49,3.49H348.07a3.49,3.49,0,1,1,0-7h25.31A3.48,3.48,0,0,1,376.87,400.83Z" transform="translate(-6.19 -4.44)"/><path class="cls-4" d="M385.77,424.06a3.49,3.49,0,0,1-1,2.47l-17.39,17.39a3.49,3.49,0,1,1-4.93-4.93l17.39-17.39a3.49,3.49,0,0,1,5.95,2.46Z" transform="translate(-6.19 -4.44)"/></svg>