<svg id="Layer_1" data-name="Layer 1" xmlns="http://www.w3.org/2000/svg" viewBox="0 0 708.39 288.69"><defs><style>.cls-1{fill:#ff4f5b;}.cls-2{fill:#a93030;}.cls-3{fill:#d9231d;}</style></defs><path class="cls-1" d="M469.45,175.4Q470,229.19,446,257.64T380.35,286.5q-41.87.39-66.56-27.59t-25.22-81.78L288,114.06q-.51-53.6,23.46-82.25t65.83-29q41.65-.4,66.37,27.78t25.22,81.77Zm-46.7-69.7q-.33-33.87-11.85-50t-33.3-16q-21.78.21-32.89,16.6t-10.79,50.25l.73,76.64q.33,34.07,12,50.32T380,249.56q21.78-.21,32.8-16.59t10.69-50.63Z" transform="translate(-38.14 -2.51)"/><path class="cls-2" d="M469.45,175.4Q470,229.19,446,257.64T380.35,286.5q-41.87.39-66.56-27.59t-25.22-81.78L288,114.06q-.51-53.6,23.46-82.25t65.83-29q41.65-.4,66.37,27.78t25.22,81.77Zm-46.7-69.7q-.33-33.87-11.85-50t-33.3-16q-21.78.21-32.89,16.6t-10.79,50.25l.73,76.64q.33,34.07,12,50.32T380,249.56q21.78-.21,32.8-16.59t10.69-50.63Z" transform="translate(-38.14 -2.51)"/><path class="cls-3" d="M496,175.14q.53,53.79-23.45,82.25t-65.64,28.85q-41.87.4-66.57-27.58t-25.22-81.78l-.6-63.07Q314,60.2,337.93,31.56t65.83-29q41.67-.39,66.38,27.78t25.22,81.78Zm-46.69-69.7q-.33-33.87-11.85-50t-33.3-15.95q-21.8.21-32.9,16.59T360.43,106.3l.74,76.64q.33,34.07,11.94,50.32t33.4,16.05q21.78-.21,32.8-16.59T450,182.08Z" transform="translate(-38.14 -2.51)"/><path class="cls-1" d="M314.66,117.55c.06.14-6.1,2.59-13.75,5.46S287,128.1,287,128s6.1-2.58,13.75-5.46S314.61,117.41,314.66,117.55Z" transform="translate(-38.14 -2.51)"/><path class="cls-1" d="M316.2,142.48c.05.14-6.11,2.58-13.76,5.46s-13.89,5.09-13.94,4.95,6.1-2.59,13.75-5.46S316.14,142.34,316.2,142.48Z" transform="translate(-38.14 -2.51)"/><path class="cls-1" d="M317.73,167.4c0,.14-6.11,2.59-13.76,5.46S290.08,178,290,177.81s6.1-2.58,13.75-5.46S317.67,167.26,317.73,167.4Z" transform="translate(-38.14 -2.51)"/><path class="cls-1" d="M319.26,192.32c.05.14-6.11,2.59-13.76,5.46s-13.89,5.09-13.94,4.95,6.1-2.58,13.75-5.46S319.2,192.18,319.26,192.32Z" transform="translate(-38.14 -2.51)"/><path class="cls-1" d="M320.79,217.25a4.48,4.48,0,0,1-1,.47c-.62.27-1.54.64-2.67,1.09-2.26.91-5.4,2.12-8.88,3.43s-6.65,2.46-8.95,3.27c-1.15.41-2.08.73-2.73.94a3.59,3.59,0,0,1-1,.27,4.48,4.48,0,0,1,1-.47c.62-.27,1.54-.64,2.67-1.09,2.26-.91,5.4-2.12,8.89-3.43s6.64-2.46,8.94-3.27c1.15-.41,2.08-.73,2.73-.94A3.59,3.59,0,0,1,320.79,217.25Z" transform="translate(-38.14 -2.51)"/><path class="cls-1" d="M327.91,240.05a23.59,23.59,0,0,1-3.16,1.39c-2,.79-4.71,1.85-7.74,3s-5.8,2.15-7.81,2.85a21.94,21.94,0,0,1-3.28,1,21,21,0,0,1,3.15-1.39c2-.79,4.71-1.85,7.75-3s5.79-2.14,7.8-2.84A21.42,21.42,0,0,1,327.91,240.05Z" transform="translate(-38.14 -2.51)"/><path class="cls-1" d="M343.14,261a17.43,17.43,0,0,1-2.8,1.26c-1.76.71-4.2,1.66-6.9,2.68s-5.17,1.91-6.95,2.53a16.52,16.52,0,0,1-2.94.89,17.51,17.51,0,0,1,2.8-1.25c1.76-.71,4.19-1.66,6.9-2.68s5.16-1.91,6.95-2.53A17.23,17.23,0,0,1,343.14,261Z" transform="translate(-38.14 -2.51)"/><path class="cls-1" d="M368.46,274.68a18.08,18.08,0,0,1-2.8,1.25c-1.76.72-4.2,1.66-6.9,2.68s-5.16,1.91-6.95,2.53a17.23,17.23,0,0,1-2.94.9,16.9,16.9,0,0,1,2.8-1.26c1.76-.71,4.19-1.66,6.9-2.68s5.16-1.91,6.95-2.53A16.52,16.52,0,0,1,368.46,274.68Z" transform="translate(-38.14 -2.51)"/><path class="cls-1" d="M444.83,221.49c.06.14-7.85,3.83-17.66,8.24s-17.82,7.88-17.88,7.74,7.84-3.82,17.66-8.24S444.76,221.36,444.83,221.49Z" transform="translate(-38.14 -2.51)"/><path class="cls-1" d="M450,200.14c.06.13-6.46,3.2-14.58,6.85s-14.73,6.49-14.79,6.35,6.46-3.2,14.57-6.85S450,200,450,200.14Z" transform="translate(-38.14 -2.51)"/><path class="cls-1" d="M452.4,176.15c.06.14-6.47,3.2-14.58,6.85s-14.74,6.49-14.8,6.36,6.47-3.21,14.58-6.86S452.34,176,452.4,176.15Z" transform="translate(-38.14 -2.51)"/><path class="cls-1" d="M454.78,152.16c.07.14-6.46,3.21-14.57,6.85s-14.74,6.49-14.8,6.36,6.46-3.21,14.58-6.85S454.72,152,454.78,152.16Z" transform="translate(-38.14 -2.51)"/><path class="cls-1" d="M457.17,128.17c.06.14-6.46,3.21-14.58,6.85s-14.73,6.5-14.79,6.36,6.46-3.2,14.57-6.85S457.11,128,457.17,128.17Z" transform="translate(-38.14 -2.51)"/><path class="cls-1" d="M452.4,106.81c.06.14-6.47,3.2-14.58,6.85S423.08,120.15,423,120s6.47-3.21,14.58-6.85S452.34,106.67,452.4,106.81Z" transform="translate(-38.14 -2.51)"/><path class="cls-1" d="M452.4,83.81c.06.14-6.47,3.21-14.58,6.85S423.08,97.16,423,97s6.47-3.2,14.58-6.85S452.34,83.68,452.4,83.81Z" transform="translate(-38.14 -2.51)"/><path class="cls-1" d="M450,62.16c.06.13-6.46,3.2-14.58,6.85s-14.73,6.49-14.79,6.35,6.46-3.2,14.57-6.85S450,62,450,62.16Z" transform="translate(-38.14 -2.51)"/><path class="cls-1" d="M429.44,47.07a86.27,86.27,0,0,1-8.83,4.26,87.36,87.36,0,0,1-9,3.77,92,92,0,0,1,8.82-4.26A88,88,0,0,1,429.44,47.07Z" transform="translate(-38.14 -2.51)"/><path class="cls-1" d="M418.44,37.83a86.27,86.27,0,0,1-8.83,4.26,87.36,87.36,0,0,1-9,3.77,92,92,0,0,1,8.82-4.26A88,88,0,0,1,418.44,37.83Z" transform="translate(-38.14 -2.51)"/><path class="cls-1" d="M315.85,87.34c0,.14-6.11,2.59-13.76,5.46s-13.89,5.09-13.94,5,6.1-2.58,13.75-5.46S315.79,87.2,315.85,87.34Z" transform="translate(-38.14 -2.51)"/><path class="cls-1" d="M323.51,56.26c.05.14-6.62,2.78-14.91,5.89s-15.05,5.53-15.11,5.39,6.63-2.78,14.92-5.89S323.46,56.12,323.51,56.26Z" transform="translate(-38.14 -2.51)"/><path class="cls-1" d="M343.53,25.5c.05.14-8.41,3.45-18.91,7.39s-19.05,7-19.1,6.89,8.41-3.45,18.91-7.39S343.48,25.36,343.53,25.5Z" transform="translate(-38.14 -2.51)"/><path class="cls-1" d="M204.2,188.46,239,190l-1.61,36.9-34.82-1.52-2.68,61.32-45.79-2,2.67-61.32L38.52,218.2l.09-28.1,126-181,47.31,2.07ZM84.41,183.23l74,3.23,4.89-111.83-1.12-.43-4.14,8Z" transform="translate(-38.14 -2.51)"/><path class="cls-2" d="M204.2,188.46,239,190l-1.61,36.9-34.82-1.52-2.68,61.32-45.79-2,2.67-61.32L38.52,218.2l.09-28.1,126-181,47.31,2.07ZM84.41,183.23l74,3.23,4.89-111.83-1.12-.43-4.14,8Z" transform="translate(-38.14 -2.51)"/><path class="cls-3" d="M233.32,189.73l34.82,1.52-1.61,36.9-34.82-1.52L229,288l-45.79-2,2.67-61.31L67.64,219.47l.09-28.1,126-181,47.31,2.07ZM113.53,184.5l74,3.23L192.41,75.9l-1.12-.43-4.14,8Z" transform="translate(-38.14 -2.51)"/><path class="cls-1" d="M68.32,196.71a5.53,5.53,0,0,1-1.13.64c-.74.37-1.82.89-3.16,1.52-2.69,1.26-6.42,2.94-10.59,4.7s-8,3.28-10.76,4.33c-1.38.52-2.51.93-3.3,1.2a6.48,6.48,0,0,1-1.23.37,5.14,5.14,0,0,1,1.16-.57l3.23-1.36,10.69-4.47,10.64-4.55,3.24-1.37A6.76,6.76,0,0,1,68.32,196.71Z" transform="translate(-38.14 -2.51)"/><path class="cls-1" d="M85.27,165.53a13.08,13.08,0,0,1-1.57.83c-1,.49-2.52,1.2-4.38,2-3.71,1.7-8.87,4-14.61,6.38s-10.95,4.55-14.75,6c-1.9.75-3.45,1.33-4.52,1.72a10.81,10.81,0,0,1-1.69.54,13.18,13.18,0,0,1,1.61-.74l4.45-1.87,14.69-6.18,14.67-6.23,4.44-1.89A9.75,9.75,0,0,1,85.27,165.53Z" transform="translate(-38.14 -2.51)"/><path class="cls-1" d="M106,137.72a13.49,13.49,0,0,1-1.64.83c-1.07.5-2.63,1.2-4.57,2-3.88,1.7-9.27,4-15.25,6.39s-11.44,4.54-15.4,6c-2,.74-3.59,1.32-4.71,1.71a11.07,11.07,0,0,1-1.76.54,14.42,14.42,0,0,1,1.69-.74L69,152.65l15.33-6.18,15.31-6.23,4.64-1.89A10.84,10.84,0,0,1,106,137.72Z" transform="translate(-38.14 -2.51)"/><path class="cls-1" d="M188.86,169.83a5.39,5.39,0,0,1-1.13.62c-.75.36-1.83.86-3.18,1.47-2.69,1.21-6.44,2.83-10.61,4.52s-8,3.14-10.78,4.14c-1.39.5-2.51.9-3.3,1.15a5.24,5.24,0,0,1-1.24.35,6.19,6.19,0,0,1,1.17-.55l3.24-1.31,10.7-4.28,10.67-4.37,3.24-1.32A6.35,6.35,0,0,1,188.86,169.83Z" transform="translate(-38.14 -2.51)"/><path class="cls-1" d="M185.49,227.05a4.89,4.89,0,0,1-1.09.61c-.72.37-1.77.87-3.08,1.48-2.6,1.21-6.23,2.83-10.28,4.52s-7.75,3.14-10.45,4.14c-1.35.5-2.44.89-3.21,1.15a5.88,5.88,0,0,1-1.2.35,5.35,5.35,0,0,1,1.13-.55l3.14-1.31,10.38-4.28,10.34-4.37,3.14-1.32A5.87,5.87,0,0,1,185.49,227.05Z" transform="translate(-38.14 -2.51)"/><path class="cls-1" d="M185,247.11a6.25,6.25,0,0,1-1.1.61c-.71.36-1.76.86-3.07,1.47-2.61,1.21-6.23,2.83-10.28,4.53s-7.76,3.13-10.45,4.13c-1.35.5-2.45.9-3.21,1.16a5.36,5.36,0,0,1-1.2.34,6.54,6.54,0,0,1,1.13-.54L160,257.5l10.38-4.29,10.34-4.37,3.14-1.31A5.16,5.16,0,0,1,185,247.11Z" transform="translate(-38.14 -2.51)"/><path class="cls-1" d="M184.53,267.16a5.54,5.54,0,0,1-1.1.61c-.72.37-1.77.87-3.07,1.48-2.61,1.21-6.24,2.83-10.29,4.52s-7.75,3.14-10.44,4.14c-1.35.5-2.45.89-3.21,1.15a5.88,5.88,0,0,1-1.2.35,5.07,5.07,0,0,1,1.12-.55l3.15-1.31,10.38-4.28,10.33-4.38,3.15-1.31A5.87,5.87,0,0,1,184.53,267.16Z" transform="translate(-38.14 -2.51)"/><path class="cls-1" d="M189.4,148.65a6.46,6.46,0,0,1-1.13.61c-.74.36-1.83.86-3.18,1.47-2.69,1.22-6.43,2.84-10.61,4.53s-8,3.13-10.77,4.13c-1.39.51-2.52.9-3.31,1.16a5.46,5.46,0,0,1-1.24.34,7.21,7.21,0,0,1,1.17-.54l3.24-1.31,10.71-4.28,10.66-4.38,3.24-1.31A5,5,0,0,1,189.4,148.65Z" transform="translate(-38.14 -2.51)"/><path class="cls-1" d="M189.94,127.46a5.35,5.35,0,0,1-1.13.61c-.74.36-1.83.87-3.17,1.48-2.7,1.21-6.44,2.83-10.62,4.52s-8,3.14-10.77,4.14c-1.39.5-2.52.89-3.31,1.15a6.17,6.17,0,0,1-1.23.35,5.22,5.22,0,0,1,1.16-.55l3.24-1.31,10.71-4.28,10.67-4.38,3.24-1.31A6.43,6.43,0,0,1,189.94,127.46Z" transform="translate(-38.14 -2.51)"/><path class="cls-1" d="M190.48,106.27a4.56,4.56,0,0,1-1.07.59c-.71.35-1.74.83-3,1.41-2.56,1.16-6.13,2.71-10.11,4.32s-7.62,3-10.27,3.93c-1.32.48-2.4.85-3.15,1.09a4.82,4.82,0,0,1-1.18.33,5.57,5.57,0,0,1,1.11-.52l3.08-1.26,10.21-4.07,10.16-4.17,3.08-1.25A6,6,0,0,1,190.48,106.27Z" transform="translate(-38.14 -2.51)"/><path class="cls-1" d="M192.88,86.48a30.58,30.58,0,0,1-5.22,2.22,30.12,30.12,0,0,1-5.41,1.72,29.27,29.27,0,0,1,5.22-2.23A29.31,29.31,0,0,1,192.88,86.48Z" transform="translate(-38.14 -2.51)"/><path class="cls-1" d="M126.62,108.88a11.87,11.87,0,0,1-1.64.83c-1.07.5-2.63,1.2-4.57,2.05-3.88,1.69-9.27,4-15.25,6.38s-11.44,4.55-15.4,6c-2,.74-3.59,1.33-4.71,1.71a12,12,0,0,1-1.76.55,11.12,11.12,0,0,1,1.69-.74l4.64-1.88L105,117.64l15.31-6.23c1.89-.78,3.46-1.41,4.64-1.89A11.79,11.79,0,0,1,126.62,108.88Z" transform="translate(-38.14 -2.51)"/><path class="cls-1" d="M147.28,80.05a13.49,13.49,0,0,1-1.64.83c-1.07.5-2.63,1.2-4.57,2.05-3.88,1.69-9.27,3.95-15.25,6.38s-11.44,4.55-15.4,6c-2,.74-3.59,1.32-4.71,1.71a11.07,11.07,0,0,1-1.76.54,14.42,14.42,0,0,1,1.69-.74L110.28,95l15.33-6.18,15.31-6.23,4.64-1.89A10.84,10.84,0,0,1,147.28,80.05Z" transform="translate(-38.14 -2.51)"/><path class="cls-1" d="M166.38,51.21a11.13,11.13,0,0,1-1.65.83c-1.07.5-2.63,1.21-4.57,2.05-3.88,1.7-9.27,4-15.25,6.38s-11.43,4.55-15.4,6c-2,.74-3.59,1.33-4.71,1.71a12.19,12.19,0,0,1-1.75.55,10.09,10.09,0,0,1,1.68-.74l4.65-1.88L144.71,60,160,53.74l4.64-1.89A13.26,13.26,0,0,1,166.38,51.21Z" transform="translate(-38.14 -2.51)"/><path class="cls-1" d="M186.24,23.49a11.87,11.87,0,0,1-1.64.83c-1.07.5-2.63,1.2-4.57,2.05-3.88,1.69-9.27,3.95-15.25,6.38s-11.43,4.55-15.4,6c-2,.74-3.59,1.32-4.71,1.71a13.87,13.87,0,0,1-1.76.55,11.65,11.65,0,0,1,1.69-.75l4.64-1.87,15.33-6.17L179.88,26l4.64-1.89A10.84,10.84,0,0,1,186.24,23.49Z" transform="translate(-38.14 -2.51)"/><path class="cls-1" d="M679.25,188.89l34.69-3.39,3.59,36.76-34.69,3.39,6,61.08L643.2,291.2l-6-61.08L519.4,241.64l-3.86-27.83,99.3-196.95L662,12.25ZM559.92,200.56l73.71-7.2L622.73,81.94l-1.17-.26-3,8.47Z" transform="translate(-38.14 -2.51)"/><path class="cls-2" d="M679.25,188.89l34.69-3.39,3.59,36.76-34.69,3.39,6,61.08L643.2,291.2l-6-61.08L519.4,241.64l-3.86-27.83,99.3-196.95L662,12.25ZM559.92,200.56l73.71-7.2L622.73,81.94l-1.17-.26-3,8.47Z" transform="translate(-38.14 -2.51)"/><path class="cls-3" d="M708.26,186.06l34.68-3.4,3.6,36.76-34.69,3.4,6,61.08-45.62,4.46-6-61.08L548.41,238.8,544.55,211,643.85,14,691,9.42ZM588.93,197.73l73.71-7.21L651.74,79.11l-1.17-.27-3,8.47Z" transform="translate(-38.14 -2.51)"/><path class="cls-1" d="M545.88,216.18a6.71,6.71,0,0,1-1,.78c-.68.47-1.67,1.14-2.91,2-2.49,1.62-6,3.81-9.83,6.14s-7.44,4.36-10,5.79c-1.3.72-2.36,1.28-3.1,1.66a6.06,6.06,0,0,1-1.17.54,5.34,5.34,0,0,1,1.07-.73l3-1.8,10-5.93,9.9-6,3-1.81A5,5,0,0,1,545.88,216.18Z" transform="translate(-38.14 -2.51)"/><path class="cls-1" d="M558.27,182.91a11.79,11.79,0,0,1-1.43,1.05c-1,.63-2.33,1.54-4.05,2.64-3.44,2.2-8.23,5.16-13.56,8.37S529,201,525.46,203c-1.77,1-3.22,1.79-4.23,2.33a12.85,12.85,0,0,1-1.59.78,9.6,9.6,0,0,1,1.49-1l4.14-2.48L539,194.5l13.64-8.23,4.13-2.49A11.45,11.45,0,0,1,558.27,182.91Z" transform="translate(-38.14 -2.51)"/><path class="cls-1" d="M574.85,152.47a12.82,12.82,0,0,1-1.51,1.05c-1,.65-2.44,1.56-4.24,2.67-3.6,2.23-8.62,5.22-14.2,8.47s-10.68,6.11-14.39,8.13c-1.86,1-3.37,1.82-4.43,2.36a12.06,12.06,0,0,1-1.66.79,11,11,0,0,1,1.56-1l4.34-2.5,14.31-8.27,14.27-8.32,4.33-2.53A11.9,11.9,0,0,1,574.85,152.47Z" transform="translate(-38.14 -2.51)"/><path class="cls-1" d="M661.44,172.61a5.94,5.94,0,0,1-1,.76c-.68.47-1.68,1.12-2.93,1.91-2.5,1.58-6,3.71-9.87,6s-7.48,4.23-10.09,5.61c-1.3.69-2.37,1.24-3.11,1.61a7,7,0,0,1-1.17.52,4.9,4.9,0,0,1,1.07-.71l3-1.75,10-5.75,9.95-5.83,3-1.75A6,6,0,0,1,661.44,172.61Z" transform="translate(-38.14 -2.51)"/><path class="cls-1" d="M666.15,229.73a4.9,4.9,0,0,1-1,.76c-.66.46-1.62,1.11-2.83,1.89-2.41,1.57-5.78,3.68-9.55,5.93s-7.23,4.19-9.76,5.56c-1.26.69-2.29,1.23-3,1.6a6,6,0,0,1-1.14.51,5.53,5.53,0,0,1,1-.7l2.92-1.74,9.68-5.7,9.62-5.78,2.92-1.75A6.1,6.1,0,0,1,666.15,229.73Z" transform="translate(-38.14 -2.51)"/><path class="cls-1" d="M668.5,249.66a5.89,5.89,0,0,1-1,.76c-.66.45-1.63,1.1-2.84,1.88-2.41,1.57-5.77,3.69-9.54,5.93s-7.24,4.2-9.77,5.57c-1.26.68-2.29,1.23-3,1.59a5.06,5.06,0,0,1-1.14.51,5.53,5.53,0,0,1,1-.7c.79-.46,1.77-1.05,2.92-1.74l9.68-5.7,9.62-5.78,2.92-1.74A5.26,5.26,0,0,1,668.5,249.66Z" transform="translate(-38.14 -2.51)"/><path class="cls-1" d="M670.84,269.58a5.89,5.89,0,0,1-1,.76c-.66.46-1.63,1.1-2.83,1.89-2.41,1.57-5.78,3.68-9.55,5.92s-7.24,4.2-9.76,5.57c-1.27.69-2.3,1.23-3,1.59a6.16,6.16,0,0,1-1.15.52,5.39,5.39,0,0,1,1-.7l2.93-1.74,9.67-5.7,9.62-5.79,2.93-1.74A5.74,5.74,0,0,1,670.84,269.58Z" transform="translate(-38.14 -2.51)"/><path class="cls-1" d="M659,151.56a6.51,6.51,0,0,1-1,.76c-.68.47-1.69,1.12-2.93,1.91-2.5,1.58-6,3.71-9.88,6s-7.47,4.23-10.08,5.61c-1.31.69-2.37,1.24-3.11,1.6a5.06,5.06,0,0,1-1.18.52,6.11,6.11,0,0,1,1.08-.7l3-1.75,10-5.75,10-5.83,3-1.76A6.24,6.24,0,0,1,659,151.56Z" transform="translate(-38.14 -2.51)"/><path class="cls-1" d="M656.55,130.51a6.06,6.06,0,0,1-1,.76c-.69.46-1.69,1.11-2.94,1.9-2.49,1.59-6,3.71-9.87,6s-7.48,4.23-10.09,5.61c-1.3.69-2.36,1.24-3.1,1.6a5.68,5.68,0,0,1-1.18.52,6.11,6.11,0,0,1,1.08-.7l3-1.76,10-5.74,9.94-5.83,3-1.76A5,5,0,0,1,656.55,130.51Z" transform="translate(-38.14 -2.51)"/><path class="cls-1" d="M654.11,109.45a5.65,5.65,0,0,1-1,.74c-.66.44-1.61,1.06-2.8,1.82-2.37,1.51-5.68,3.54-9.39,5.7s-7.13,4-9.62,5.33c-1.24.66-2.26,1.18-3,1.52a4.7,4.7,0,0,1-1.13.49,5.43,5.43,0,0,1,1-.67l2.88-1.67,9.52-5.47,9.47-5.56L653,110A5.59,5.59,0,0,1,654.11,109.45Z" transform="translate(-38.14 -2.51)"/><path class="cls-1" d="M653.69,89.51a28.55,28.55,0,0,1-4.85,2.94,30.3,30.3,0,0,1-5.12,2.46A30.26,30.26,0,0,1,648.58,92,30,30,0,0,1,653.69,89.51Z" transform="translate(-38.14 -2.51)"/><path class="cls-1" d="M591.25,121a10.82,10.82,0,0,1-1.51,1.06c-1,.64-2.44,1.56-4.24,2.67-3.6,2.22-8.62,5.22-14.2,8.46s-10.68,6.11-14.4,8.14c-1.85,1-3.37,1.81-4.42,2.36a11.1,11.1,0,0,1-1.66.78,13.26,13.26,0,0,1,1.56-1l4.34-2.51L571,132.73l14.27-8.32,4.33-2.52A13,13,0,0,1,591.25,121Z" transform="translate(-38.14 -2.51)"/><path class="cls-1" d="M607.65,89.56a11.47,11.47,0,0,1-1.51,1c-1,.65-2.44,1.57-4.24,2.68-3.6,2.22-8.62,5.22-14.2,8.46s-10.68,6.11-14.4,8.13c-1.85,1-3.37,1.82-4.42,2.36a12.06,12.06,0,0,1-1.66.79,11.76,11.76,0,0,1,1.56-1l4.34-2.51,14.31-8.27L601.7,93,606,90.43A11.9,11.9,0,0,1,607.65,89.56Z" transform="translate(-38.14 -2.51)"/><path class="cls-1" d="M622.5,58.33A12.82,12.82,0,0,1,621,59.38c-1,.65-2.44,1.56-4.24,2.67-3.6,2.23-8.62,5.22-14.2,8.47s-10.68,6.11-14.4,8.13c-1.86,1-3.37,1.82-4.42,2.36a12.76,12.76,0,0,1-1.66.79,11,11,0,0,1,1.56-1l4.33-2.5,14.31-8.27,14.28-8.33,4.33-2.52A11.9,11.9,0,0,1,622.5,58.33Z" transform="translate(-38.14 -2.51)"/><path class="cls-1" d="M638.27,28.08a10.82,10.82,0,0,1-1.51,1.06c-1,.64-2.44,1.56-4.24,2.67-3.6,2.22-8.62,5.22-14.2,8.46s-10.68,6.11-14.4,8.14c-1.86,1-3.37,1.81-4.42,2.36a11.69,11.69,0,0,1-1.66.78,11.76,11.76,0,0,1,1.56-1l4.33-2.51c3.74-2.15,8.76-5.06,14.31-8.27l14.28-8.32L636.65,29A13,13,0,0,1,638.27,28.08Z" transform="translate(-38.14 -2.51)"/></svg>