<svg width="375" height="242" viewBox="0 0 375 242" fill="none" xmlns="http://www.w3.org/2000/svg">
<g clip-path="url(#clip0_675_20792)">
<rect width="375" height="242" fill="#D9231D"/>
<g opacity="0.5">
<path d="M36.4049 297.7C99.6634 214.734 104.154 142.554 95.9732 91.2252C86.8416 33.9407 57.833 -23.0379 69.1791 -30.467C76.4439 -35.2249 95.0585 -16.2516 132.567 26.316C246.309 155.396 262.697 193.764 290.849 196.65C330.291 200.702 325.37 128.183 378.108 114.17C416.844 103.881 462.248 131.634 495.944 158.275" stroke="white" stroke-width="0.2" stroke-miterlimit="10"/>
<path d="M31.5507 292.222C93.018 211.331 99.9027 140.533 93.7327 92.0509C86.8369 37.8713 59.0199 -16.0135 70.6537 -22.3795C78.1327 -26.4734 96.4494 -7.84515 132.75 33.2058C243.061 157.938 260.09 196.609 287.922 199.052C327.366 202.33 319.654 125.393 372.124 108.846C373.268 108.486 374.403 108.151 375.555 107.859C413.61 98.2323 459.559 125.835 493.693 152.106" stroke="white" stroke-width="0.2" stroke-miterlimit="10"/>
<path d="M26.669 286.742C86.3411 207.933 95.6524 138.628 91.4931 92.871C86.856 41.868 60.2343 -9.00893 72.1524 -14.3161C79.8501 -17.7464 97.8685 0.539867 132.948 40.0794C239.793 160.476 257.503 199.579 284.991 201.45C324.474 204.137 313.927 122.58 366.135 103.546C367.28 103.128 368.421 102.711 369.595 102.376C407.909 91.4482 455.894 119.295 491.451 145.972" stroke="white" stroke-width="0.2" stroke-miterlimit="10"/>
<path d="M21.7431 281.266C79.6252 204.519 91.3849 136.864 89.2392 93.6845C86.8657 45.9381 61.4631 -2.02497 73.6592 -6.277C81.5826 -9.04073 99.2852 8.90017 133.146 46.9318C236.514 163.025 254.879 202.473 282.035 203.849C321.538 205.852 308.168 119.755 360.121 98.2775C361.274 97.8002 362.428 97.3286 363.605 96.9263C401.849 83.8673 452.208 112.798 489.191 139.881" stroke="white" stroke-width="0.2" stroke-miterlimit="10"/>
<path d="M16.7271 276.12C72.7436 201.387 86.9338 135.463 86.8091 94.674C86.6736 50.2355 62.5546 5.05991 75.009 1.85094C83.1518 -0.248849 100.523 17.3584 133.123 53.9113C232.9 165.777 251.908 205.599 278.702 206.485C318.19 207.793 301.984 117.084 353.628 93.173C354.789 92.64 355.951 92.1065 357.143 91.6383C395.448 76.8851 447.964 106.474 486.346 133.985" stroke="white" stroke-width="0.2" stroke-miterlimit="10"/>
<path d="M11.705 270.985C65.8532 198.261 82.4621 134.234 84.3854 95.6668C86.4307 54.6254 63.6583 12.1433 76.3708 9.96844C84.7386 8.53806 101.77 25.8067 133.108 60.8856C229.285 168.533 248.935 208.72 275.367 209.128C314.834 209.734 295.784 114.396 347.135 88.0964C348.302 87.4984 349.467 86.897 350.676 86.3781C389.047 69.9482 443.724 100.178 483.498 128.117" stroke="white" stroke-width="0.2" stroke-miterlimit="10"/>
<path d="M6.67215 265.859C58.9439 195.136 77.9395 133.181 81.9511 96.6607C86.0776 59.0868 64.7761 19.2254 77.7313 18.0803C86.3274 17.3196 103.018 34.2544 133.085 67.8538C225.652 171.29 245.946 211.84 272.014 211.774C311.466 211.673 289.558 111.695 340.622 83.0307C341.8 82.3704 342.967 81.7053 344.187 81.1317C382.626 63.0395 439.463 93.9051 480.633 122.266" stroke="white" stroke-width="0.2" stroke-miterlimit="10"/>
<path d="M1.6306 260.744C52.0242 192.02 67.4937 128.304 79.5186 97.6551C79.6185 60.9189 65.9025 26.3089 79.0999 26.1808C87.9272 26.096 104.269 42.6807 133.072 74.8256C222.017 174.06 242.952 214.965 268.658 214.434C308.088 213.619 283.316 108.988 334.104 77.9872C335.285 77.2669 336.464 76.5375 337.698 75.9046C376.215 56.1681 435.21 87.6475 477.777 116.443" stroke="white" stroke-width="0.2" stroke-miterlimit="10"/>
<path d="M-3.41625 255.636C45.0969 188.907 62.1492 126.37 77.0875 98.649C78.5205 64.8139 67.0404 33.3922 80.4771 34.2731C89.5383 34.8667 105.526 51.0995 133.055 81.7736C218.362 176.816 239.945 218.068 265.289 217.08C304.696 215.543 277.05 106.249 327.574 72.9381C328.76 72.1553 329.946 71.3631 331.195 70.6729C369.796 49.3071 430.937 81.3988 474.909 110.621" stroke="white" stroke-width="0.2" stroke-miterlimit="10"/>
<path d="M-8.4657 250.537C38.1618 185.799 56.8024 124.442 74.6578 99.6426C77.4254 68.7028 68.1899 40.4734 81.8621 42.3537C91.1579 43.6308 106.794 59.5136 133.043 88.7217C214.721 179.584 236.933 221.174 261.914 219.735C301.299 217.47 270.768 103.507 321.04 67.9049C322.233 67.0616 323.427 66.2081 324.689 65.4592C363.379 42.4756 426.669 75.17 472.044 104.825" stroke="white" stroke-width="0.2" stroke-miterlimit="10"/>
<path d="M-13.5167 245.444C31.2222 182.694 51.4533 122.513 72.2319 100.636C76.3364 72.5896 69.3492 47.5562 83.253 50.4264C92.7859 52.3934 108.067 67.9201 133.034 95.6591C211.059 182.338 233.911 224.273 258.53 222.394C297.888 219.39 264.468 100.751 314.5 62.8809C315.699 61.9732 316.902 61.0623 318.174 60.2536C356.963 35.6638 422.398 68.9557 469.175 99.0431" stroke="white" stroke-width="0.2" stroke-miterlimit="10"/>
<path d="M-18.5658 240.356C24.2773 179.593 46.1098 120.582 69.8161 101.632C75.2591 76.4747 70.5228 54.6396 84.6573 58.4952C94.4266 61.1575 109.349 76.3201 133.035 102.607C207.402 185.116 230.887 227.383 255.148 225.069C294.478 221.32 258.162 98.0031 307.965 57.879C309.17 56.9088 310.375 55.9386 311.668 55.0769C350.559 28.8901 418.136 62.7723 466.316 93.2965" stroke="white" stroke-width="0.2" stroke-miterlimit="10"/>
<path d="M-23.6049 235.274C17.34 176.488 40.766 118.651 67.4032 102.609C74.1854 80.3379 71.7024 61.7075 86.0718 66.5349C96.0756 69.8964 110.64 84.6956 133.04 109.525C203.746 187.87 227.857 230.467 251.756 227.727C291.051 223.222 251.833 95.2161 301.423 52.8602C302.632 51.8266 303.852 50.7973 305.155 49.8702C344.159 22.103 413.867 56.5606 463.453 87.5309" stroke="white" stroke-width="0.2" stroke-miterlimit="10"/>
<path d="M-28.6276 230.194C10.4081 173.381 35.4361 116.715 65.0076 103.59C73.1281 84.202 72.8979 68.7742 87.5017 74.5708C97.7395 78.6351 111.944 93.0642 133.056 116.439C200.082 190.631 224.827 233.556 248.365 230.392C287.625 225.122 245.495 92.4177 294.883 47.8477C296.098 46.75 297.328 45.6614 298.64 44.6771C337.756 15.3268 409.601 50.3791 460.595 81.7821" stroke="white" stroke-width="0.2" stroke-miterlimit="10"/>
<path d="M-33.6352 225.117C3.49115 170.269 30.1231 114.77 62.6275 104.557C72.0873 88.0489 74.1103 75.8294 88.9505 82.5958C99.4184 87.3654 113.265 101.423 133.08 123.348C196.423 193.39 221.791 236.632 244.972 233.058C284.19 227.013 239.155 89.626 288.343 42.8315C289.564 41.6718 290.804 40.5256 292.127 39.4817C331.365 8.55756 405.336 44.1936 457.725 76.0411" stroke="white" stroke-width="0.2" stroke-miterlimit="10"/>
<path d="M-38.5997 220.04C-3.39329 167.151 24.8408 112.815 60.2787 105.514C71.078 91.8832 75.3505 82.873 90.4258 90.5952C101.121 96.0743 114.61 109.76 133.138 130.233C192.79 196.129 218.779 239.691 241.604 235.709C280.771 228.877 232.822 86.7872 281.828 37.8019C283.054 36.5783 284.304 35.3746 285.647 34.2705C324.997 1.77034 401.086 37.9847 454.872 70.2722" stroke="white" stroke-width="0.2" stroke-miterlimit="10"/>
<path d="M-42.4467 214.905C-9.28488 163.896 20.4365 110.652 58.7274 106.219C70.8189 95.4407 77.3296 89.6352 92.6232 98.3095C103.527 104.496 116.65 117.808 133.867 136.83C189.782 198.597 216.386 242.494 238.805 238.086C277.832 230.417 226.907 83.5312 275.581 32.2518C276.807 30.9605 278.065 29.6988 279.409 28.5342C318.786 -5.57995 396.881 31.1822 451.993 63.9108" stroke="white" stroke-width="0.2" stroke-miterlimit="10"/>
<path d="M-46.2707 209.749C-15.1477 160.621 16.0566 108.454 57.1996 106.907C70.6012 98.987 79.327 96.3806 94.8395 106.008C105.949 112.897 118.71 125.845 134.62 143.429C186.796 201.071 214.008 245.302 236.024 240.478C274.908 231.965 221.013 80.2714 269.367 26.7125C270.592 25.3537 271.858 24.0334 273.209 22.8068C312.601 -12.9435 392.677 24.3685 449.116 57.5394" stroke="white" stroke-width="0.2" stroke-miterlimit="10"/>
<path d="M-50.0926 204.59C-20.9944 157.358 19.8542 128.235 55.6849 107.601C69.0927 99.8793 81.3339 103.143 97.0705 113.725C108.385 121.326 120.782 133.902 135.385 150.042C183.823 203.566 211.634 248.123 233.251 242.887C271.977 233.506 215.123 76.9979 263.163 21.1557C264.388 19.7328 265.665 18.3514 267.022 17.0631C306.434 -20.3128 388.483 17.5503 446.241 51.1543" stroke="white" stroke-width="0.2" stroke-miterlimit="10"/>
<path d="M-53.9272 199.419C-26.848 154.063 8.37574 109.22 54.1619 108.283C70.679 107.945 83.326 109.899 99.2913 121.439C110.808 129.755 122.842 141.956 136.139 156.654C180.843 206.057 209.245 250.939 230.468 245.297C269.035 235.046 209.231 73.7201 256.97 15.6018C258.197 14.1105 259.483 12.6759 260.847 11.3217C300.374 -27.5563 384.306 10.7351 443.375 44.7837" stroke="white" stroke-width="0.2" stroke-miterlimit="10"/>
<path d="M-57.7589 194.235C-32.6915 150.772 3.36694 104.459 52.648 108.965C70.1292 110.565 85.3215 116.665 101.517 129.161C113.233 138.196 124.909 150.026 136.898 163.278C177.871 208.56 206.907 253.886 227.692 247.723C266.004 236.363 203.255 70.3315 250.799 10.0483C252.022 8.48627 253.318 6.99664 254.689 5.57945C294.207 -34.9834 380.136 3.91815 440.509 38.4136" stroke="white" stroke-width="0.2" stroke-miterlimit="10"/>
</g>
</g>
<defs>
<clipPath id="clip0_675_20792">
<rect width="375" height="242" fill="white"/>
</clipPath>
</defs>
</svg>
