<svg width="144" height="144" viewBox="0 0 144 144" fill="currentColor" xmlns="http://www.w3.org/2000/svg">
  <ellipse cx="2.28578" cy="2.28706" rx="0.845838" ry="0.847059" />
  <ellipse cx="2.28578" cy="14.9929" rx="0.845838" ry="0.847059" />
  <ellipse cx="2.28578" cy="27.6988" rx="0.845838" ry="0.847059" />
  <ellipse cx="2.28578" cy="40.4047" rx="0.845838" ry="0.847059" />
  <ellipse cx="2.28578" cy="53.1106" rx="0.845838" ry="0.847059" />
  <ellipse cx="2.28578" cy="65.8165" rx="0.845838" ry="0.847059" />
  <ellipse cx="2.28578" cy="78.5224" rx="0.845838" ry="0.847059" />
  <ellipse cx="2.28578" cy="91.2282" rx="0.845838" ry="0.847059" />
  <ellipse cx="2.28578" cy="103.934" rx="0.845838" ry="0.847059" />
  <ellipse cx="2.28578" cy="116.64" rx="0.845838" ry="0.847059" />
  <ellipse cx="2.28578" cy="129.346" rx="0.845838" ry="0.847059" />
  <ellipse cx="2.28578" cy="142.052" rx="0.845838" ry="0.847059" />
  <ellipse cx="14.9733" cy="2.28706" rx="0.845838" ry="0.847059" />
  <ellipse cx="14.9733" cy="14.9929" rx="0.845838" ry="0.847059" />
  <ellipse cx="14.9733" cy="27.6988" rx="0.845838" ry="0.847059" />
  <ellipse cx="14.9733" cy="40.4047" rx="0.845838" ry="0.847059" />
  <ellipse cx="14.9733" cy="53.1106" rx="0.845838" ry="0.847059" />
  <ellipse cx="14.9733" cy="65.8165" rx="0.845838" ry="0.847059" />
  <ellipse cx="14.9733" cy="78.5224" rx="0.845838" ry="0.847059" />
  <ellipse cx="14.9733" cy="91.2282" rx="0.845838" ry="0.847059" />
  <ellipse cx="14.9733" cy="103.934" rx="0.845838" ry="0.847059" />
  <ellipse cx="14.9733" cy="116.64" rx="0.845838" ry="0.847059" />
  <ellipse cx="14.9733" cy="129.346" rx="0.845838" ry="0.847059" />
  <ellipse cx="14.9733" cy="142.052" rx="0.845838" ry="0.847059" />
  <ellipse cx="27.6608" cy="2.28706" rx="0.845838" ry="0.847059" />
  <ellipse cx="27.6608" cy="14.9929" rx="0.845838" ry="0.847059" />
  <ellipse cx="27.6608" cy="27.6988" rx="0.845838" ry="0.847059" />
  <ellipse cx="27.6608" cy="40.4047" rx="0.845838" ry="0.847059" />
  <ellipse cx="27.6608" cy="53.1106" rx="0.845838" ry="0.847059" />
  <ellipse cx="27.6608" cy="65.8165" rx="0.845838" ry="0.847059" />
  <ellipse cx="27.6608" cy="78.5224" rx="0.845838" ry="0.847059" />
  <ellipse cx="27.6608" cy="91.2282" rx="0.845838" ry="0.847059" />
  <ellipse cx="27.6608" cy="103.934" rx="0.845838" ry="0.847059" />
  <ellipse cx="27.6608" cy="116.64" rx="0.845838" ry="0.847059" />
  <ellipse cx="27.6608" cy="129.346" rx="0.845838" ry="0.847059" />
  <ellipse cx="27.6608" cy="142.052" rx="0.845838" ry="0.847059" />
  <ellipse cx="40.3488" cy="2.28706" rx="0.845838" ry="0.847059" />
  <ellipse cx="40.3488" cy="14.9929" rx="0.845838" ry="0.847059" />
  <ellipse cx="40.3488" cy="27.6988" rx="0.845838" ry="0.847059" />
  <ellipse cx="40.3488" cy="40.4047" rx="0.845838" ry="0.847059" />
  <ellipse cx="40.3488" cy="53.1106" rx="0.845838" ry="0.847059" />
  <ellipse cx="40.3488" cy="65.8165" rx="0.845838" ry="0.847059" />
  <ellipse cx="40.3488" cy="78.5224" rx="0.845838" ry="0.847059" />
  <ellipse cx="40.3488" cy="91.2282" rx="0.845838" ry="0.847059" />
  <ellipse cx="40.3488" cy="103.934" rx="0.845838" ry="0.847059" />
  <ellipse cx="40.3488" cy="116.64" rx="0.845838" ry="0.847059" />
  <ellipse cx="40.3488" cy="129.346" rx="0.845838" ry="0.847059" />
  <ellipse cx="40.3488" cy="142.052" rx="0.845838" ry="0.847059" />
  <ellipse cx="53.0363" cy="2.28706" rx="0.845838" ry="0.847059" />
  <ellipse cx="53.0363" cy="14.9929" rx="0.845838" ry="0.847059" />
  <ellipse cx="53.0363" cy="27.6988" rx="0.845838" ry="0.847059" />
  <ellipse cx="53.0363" cy="40.4047" rx="0.845838" ry="0.847059" />
  <ellipse cx="53.0363" cy="53.1106" rx="0.845838" ry="0.847059" />
  <ellipse cx="53.0363" cy="65.8165" rx="0.845838" ry="0.847059" />
  <ellipse cx="53.0363" cy="78.5224" rx="0.845838" ry="0.847059" />
  <ellipse cx="53.0363" cy="91.2282" rx="0.845838" ry="0.847059" />
  <ellipse cx="53.0363" cy="103.934" rx="0.845838" ry="0.847059" />
  <ellipse cx="53.0363" cy="116.64" rx="0.845838" ry="0.847059" />
  <ellipse cx="53.0363" cy="129.346" rx="0.845838" ry="0.847059" />
  <ellipse cx="53.0363" cy="142.052" rx="0.845838" ry="0.847059" />
  <ellipse cx="65.7238" cy="2.28706" rx="0.845838" ry="0.847059" />
  <ellipse cx="65.7238" cy="14.9929" rx="0.845838" ry="0.847059" />
  <ellipse cx="65.7238" cy="27.6988" rx="0.845838" ry="0.847059" />
  <ellipse cx="65.7238" cy="40.4047" rx="0.845838" ry="0.847059" />
  <ellipse cx="65.7238" cy="53.1106" rx="0.845838" ry="0.847059" />
  <ellipse cx="65.7238" cy="65.8165" rx="0.845838" ry="0.847059" />
  <ellipse cx="65.7238" cy="78.5224" rx="0.845838" ry="0.847059" />
  <ellipse cx="65.7238" cy="91.2282" rx="0.845838" ry="0.847059" />
  <ellipse cx="65.7238" cy="103.934" rx="0.845838" ry="0.847059" />
  <ellipse cx="65.7238" cy="116.64" rx="0.845838" ry="0.847059" />
  <ellipse cx="65.7238" cy="129.346" rx="0.845838" ry="0.847059" />
  <ellipse cx="65.7238" cy="142.052" rx="0.845838" ry="0.847059" />
  <ellipse cx="78.4113" cy="2.28706" rx="0.845838" ry="0.847059" />
  <ellipse cx="78.4113" cy="14.9929" rx="0.845838" ry="0.847059" />
  <ellipse cx="78.4113" cy="27.6988" rx="0.845838" ry="0.847059" />
  <ellipse cx="78.4113" cy="40.4047" rx="0.845838" ry="0.847059" />
  <ellipse cx="78.4113" cy="53.1106" rx="0.845838" ry="0.847059" />
  <ellipse cx="78.4113" cy="65.8165" rx="0.845838" ry="0.847059" />
  <ellipse cx="78.4113" cy="78.5224" rx="0.845838" ry="0.847059" />
  <ellipse cx="78.4113" cy="91.2282" rx="0.845838" ry="0.847059" />
  <ellipse cx="78.4113" cy="103.934" rx="0.845838" ry="0.847059" />
  <ellipse cx="78.4113" cy="116.64" rx="0.845838" ry="0.847059" />
  <ellipse cx="78.4113" cy="129.346" rx="0.845838" ry="0.847059" />
  <ellipse cx="78.4113" cy="142.052" rx="0.845838" ry="0.847059" />
  <ellipse cx="91.0988" cy="2.28706" rx="0.845838" ry="0.847059" />
  <ellipse cx="103.786" cy="2.28706" rx="0.845838" ry="0.847059" />
  <ellipse cx="116.474" cy="2.28706" rx="0.845838" ry="0.847059" />
  <ellipse cx="129.161" cy="2.28706" rx="0.845838" ry="0.847059" />
  <ellipse cx="141.849" cy="2.28706" rx="0.845838" ry="0.847059" />
  <ellipse cx="91.0988" cy="14.9929" rx="0.845838" ry="0.847059" />
  <ellipse cx="103.786" cy="14.9929" rx="0.845838" ry="0.847059" />
  <ellipse cx="116.474" cy="14.9929" rx="0.845838" ry="0.847059" />
  <ellipse cx="129.161" cy="14.9929" rx="0.845838" ry="0.847059" />
  <ellipse cx="141.849" cy="14.9929" rx="0.845838" ry="0.847059" />
  <ellipse cx="91.0988" cy="27.6988" rx="0.845838" ry="0.847059" />
  <ellipse cx="103.786" cy="27.6988" rx="0.845838" ry="0.847059" />
  <ellipse cx="116.474" cy="27.6988" rx="0.845838" ry="0.847059" />
  <ellipse cx="129.161" cy="27.6988" rx="0.845838" ry="0.847059" />
  <ellipse cx="141.849" cy="27.6988" rx="0.845838" ry="0.847059" />
  <ellipse cx="91.0988" cy="40.4047" rx="0.845838" ry="0.847059" />
  <ellipse cx="103.786" cy="40.4047" rx="0.845838" ry="0.847059" />
  <ellipse cx="116.474" cy="40.4047" rx="0.845838" ry="0.847059" />
  <ellipse cx="129.161" cy="40.4047" rx="0.845838" ry="0.847059" />
  <ellipse cx="141.849" cy="40.4047" rx="0.845838" ry="0.847059" />
  <ellipse cx="91.0988" cy="53.1106" rx="0.845838" ry="0.847059" />
  <ellipse cx="103.786" cy="53.1106" rx="0.845838" ry="0.847059" />
  <ellipse cx="116.474" cy="53.1106" rx="0.845838" ry="0.847059" />
  <ellipse cx="129.161" cy="53.1106" rx="0.845838" ry="0.847059" />
  <ellipse cx="141.849" cy="53.1106" rx="0.845838" ry="0.847059" />
  <ellipse cx="91.0988" cy="65.8165" rx="0.845838" ry="0.847059" />
  <ellipse cx="103.786" cy="65.8165" rx="0.845838" ry="0.847059" />
  <ellipse cx="116.474" cy="65.8165" rx="0.845838" ry="0.847059" />
  <ellipse cx="129.161" cy="65.8165" rx="0.845838" ry="0.847059" />
  <ellipse cx="141.849" cy="65.8165" rx="0.845838" ry="0.847059" />
  <ellipse cx="91.0988" cy="78.5224" rx="0.845838" ry="0.847059" />
  <ellipse cx="103.786" cy="78.5224" rx="0.845838" ry="0.847059" />
  <ellipse cx="116.474" cy="78.5224" rx="0.845838" ry="0.847059" />
  <ellipse cx="129.161" cy="78.5224" rx="0.845838" ry="0.847059" />
  <ellipse cx="141.849" cy="78.5224" rx="0.845838" ry="0.847059" />
  <ellipse cx="91.0988" cy="91.2282" rx="0.845838" ry="0.847059" />
  <ellipse cx="103.786" cy="91.2282" rx="0.845838" ry="0.847059" />
  <ellipse cx="116.474" cy="91.2282" rx="0.845838" ry="0.847059" />
  <ellipse cx="129.161" cy="91.2282" rx="0.845838" ry="0.847059" />
  <ellipse cx="141.849" cy="91.2282" rx="0.845838" ry="0.847059" />
  <ellipse cx="91.0988" cy="103.934" rx="0.845838" ry="0.847059" />
  <ellipse cx="103.786" cy="103.934" rx="0.845838" ry="0.847059" />
  <ellipse cx="116.474" cy="103.934" rx="0.845838" ry="0.847059" />
  <ellipse cx="129.161" cy="103.934" rx="0.845838" ry="0.847059" />
  <ellipse cx="141.849" cy="103.934" rx="0.845838" ry="0.847059" />
  <ellipse cx="91.0988" cy="116.64" rx="0.845838" ry="0.847059" />
  <ellipse cx="103.786" cy="116.64" rx="0.845838" ry="0.847059" />
  <ellipse cx="116.474" cy="116.64" rx="0.845838" ry="0.847059" />
  <ellipse cx="129.161" cy="116.64" rx="0.845838" ry="0.847059" />
  <ellipse cx="141.849" cy="116.64" rx="0.845838" ry="0.847059" />
  <ellipse cx="91.0988" cy="129.346" rx="0.845838" ry="0.847059" />
  <ellipse cx="103.786" cy="129.346" rx="0.845838" ry="0.847059" />
  <ellipse cx="116.474" cy="129.346" rx="0.845838" ry="0.847059" />
  <ellipse cx="129.161" cy="129.346" rx="0.845838" ry="0.847059" />
  <ellipse cx="141.849" cy="129.346" rx="0.845838" ry="0.847059" />
  <ellipse cx="91.0988" cy="142.052" rx="0.845838" ry="0.847059" />
  <ellipse cx="103.786" cy="142.052" rx="0.845838" ry="0.847059" />
  <ellipse cx="116.474" cy="142.052" rx="0.845838" ry="0.847059" />
  <ellipse cx="129.161" cy="142.052" rx="0.845838" ry="0.847059" />
  <ellipse cx="141.849" cy="142.052" rx="0.845838" ry="0.847059" />
</svg>