<svg width="747" height="588" viewBox="0 0 747 588" fill="none" xmlns="http://www.w3.org/2000/svg">
  <g clip-path="url(#clip0_1044_23731)">
    <rect width="747" height="588" fill="#E5E5E5" />
    <path d="M284.992 587.994H244.545L292.183 563.691L300.465 559.473L403.66 506.803L420.065 498.421L491.23 462.108L499.463 457.915L582.321 415.633L590.573 411.421L654.903 378.602L663.259 374.304L742.78 333.724C744.08 333.044 745.528 332.698 746.995 332.717V352.212L669.584 391.742L661.333 395.96L557.929 448.71L549.677 452.923L428.163 514.938L411.758 523.313L284.992 587.994Z" fill="white" />
    <path d="M464.063 587.994H443.511L411.757 523.313L403.659 506.802L342.825 382.949L338.788 374.666L293.604 282.656L289.568 274.422L284.733 264.598L249.875 193.618L240.672 174.847L205.09 102.35L199.734 91.4454L191.059 73.7801C190.955 73.5775 190.851 73.3442 190.746 73.1109L173.207 37.4181L169.139 29.1535L156.796 4.00952C156.179 2.76345 155.862 1.39047 155.869 0H175.378L204.311 58.9455L212.642 75.9476L259.396 171.175C259.531 171.409 259.629 171.642 259.733 171.869L296.739 247.246L304.893 263.824L325.07 304.963L329.107 313.191L388.616 434.398L392.683 442.626L420.082 498.458L428.186 514.969L464.063 587.994Z" fill="white" />
    <path d="M0.189453 291.375V273.028C52.7596 275.134 95.2316 267.435 129.072 255.449C133.235 253.992 137.244 252.459 141.096 250.85C202.715 225.761 232.439 187.078 240.648 174.816C242.23 172.483 243.04 171.102 243.102 170.948C244.283 168.816 246.262 167.239 248.604 166.565C250.945 165.89 253.458 166.173 255.592 167.35C257.433 168.353 258.884 169.944 259.715 171.869C260.244 173.137 260.481 174.509 260.408 175.881C260.334 177.253 259.953 178.592 259.292 179.796C256.466 184.605 253.311 189.213 249.85 193.587C239.556 206.917 220.323 227.831 189.605 247.006C188.912 247.43 188.219 247.848 187.525 248.308C183.096 250.991 178.323 253.711 173.225 256.388C147.599 269.897 113.526 282.435 70.0171 288.262C64.0785 289.066 57.9497 289.754 51.6123 290.288C34.5102 291.713 17.3364 292.076 0.189453 291.375V291.375Z" fill="white" />
    <path d="M613.541 587.994H603.94L595.277 566.417L549.683 452.923L546.087 443.952C545.862 443.413 545.747 442.835 545.75 442.251C545.746 441.333 546.021 440.436 546.538 439.678C547.055 438.921 547.79 438.338 548.646 438.008C549.78 437.554 551.048 437.567 552.173 438.045C553.298 438.522 554.189 439.425 554.652 440.556L557.928 448.71L601.946 558.288L605.388 566.884L613.203 586.324C613.424 586.853 613.538 587.42 613.541 587.994V587.994Z" fill="white" />
    <path d="M595.535 566.958C595.438 566.783 595.352 566.603 595.278 566.417C595.071 565.891 594.965 565.331 594.965 564.766C594.973 563.934 595.205 563.12 595.637 562.41C596.069 561.7 596.684 561.12 597.419 560.732L601.971 558.275L706.019 502.314L714.197 497.918L744.81 481.462C745.482 481.088 746.238 480.891 747.007 480.891V490.715L717.768 506.428L709.59 510.83L605.413 566.841L601.787 568.794C601.256 569.085 600.673 569.268 600.072 569.333C599.47 569.398 598.861 569.344 598.281 569.174C597.7 569.003 597.158 568.72 596.687 568.339C596.216 567.959 595.825 567.49 595.535 566.958V566.958Z" fill="white" />
    <path d="M125.324 265.089C125.326 264.468 125.453 263.854 125.698 263.284L202.949 83.936C203.437 82.8149 204.348 81.9323 205.484 81.4804C206.619 81.0284 207.887 81.0437 209.011 81.5229C209.566 81.7567 210.07 82.0982 210.493 82.5279C210.916 82.9576 211.25 83.4668 211.475 84.0262C211.7 84.5857 211.813 85.1842 211.806 85.7873C211.798 86.3905 211.672 86.9862 211.434 87.5402L134.183 266.894C133.762 267.868 133.019 268.666 132.08 269.157C131.14 269.647 130.061 269.799 129.022 269.588C127.984 269.376 127.049 268.814 126.376 267.995C125.703 267.176 125.331 266.15 125.324 265.089V265.089Z" fill="white" />
    <path d="M162.292 179.029L162.065 178.838L105.17 135.378L40.4652 86.1096L32.5266 80.0554L0.226263 55.4272L0.189453 55.3904V43.8223L8.01148 49.7967L38.6554 73.1293L47.5019 79.8651L111.305 128.55L165.802 170.144L167.881 171.753C168.364 172.111 168.771 172.561 169.078 173.079C169.384 173.596 169.585 174.169 169.668 174.765C169.751 175.36 169.714 175.967 169.56 176.548C169.406 177.129 169.138 177.674 168.771 178.151C168.025 179.122 166.925 179.759 165.712 179.924C164.499 180.088 163.27 179.766 162.292 179.029V179.029Z" fill="white" />
    <path d="M160.477 344.997C160.477 344.161 160.706 343.341 161.139 342.626C161.571 341.91 162.191 341.327 162.931 340.938L297.592 270.21C298.673 269.64 299.934 269.521 301.102 269.879C302.27 270.237 303.248 271.042 303.825 272.12C304.109 272.652 304.284 273.236 304.34 273.837C304.397 274.437 304.334 275.044 304.154 275.62C303.975 276.196 303.684 276.731 303.296 277.194C302.909 277.656 302.434 278.037 301.899 278.315L167.25 349.056C166.166 349.63 164.899 349.75 163.726 349.39C162.554 349.03 161.573 348.218 160.998 347.134C160.65 346.476 160.471 345.742 160.477 344.997V344.997Z" fill="white" />
    <path d="M175.109 466.468C175.111 465.643 175.334 464.833 175.756 464.124C176.179 463.416 176.784 462.834 177.508 462.44L346.691 370.374C347.766 369.791 349.029 369.658 350.202 370.003C351.376 370.348 352.365 371.144 352.955 372.216C353.244 372.746 353.427 373.327 353.491 373.927C353.555 374.527 353.5 375.134 353.329 375.713C353.158 376.292 352.874 376.831 352.494 377.299C352.114 377.768 351.645 378.156 351.114 378.442L181.968 470.49C180.893 471.072 179.63 471.206 178.457 470.861C177.283 470.516 176.294 469.72 175.704 468.648C175.325 467.983 175.121 467.233 175.109 466.468V466.468Z" fill="white" />
    <path d="M239.783 431.279C239.79 430.207 240.169 429.171 240.855 428.348C241.541 427.525 242.491 426.966 243.543 426.766C244.595 426.567 245.684 426.739 246.623 427.255C247.562 427.77 248.293 428.595 248.691 429.59L304.034 568.456C304.257 569.016 304.366 569.616 304.356 570.219C304.346 570.822 304.217 571.417 303.976 571.97C303.736 572.523 303.388 573.023 302.954 573.441C302.52 573.859 302.007 574.187 301.445 574.406C300.309 574.854 299.042 574.836 297.919 574.354C296.797 573.872 295.91 572.966 295.451 571.833L240.139 432.967C239.913 432.432 239.793 431.859 239.783 431.279V431.279Z" fill="white" />
    <path d="M134.618 587.994H125.329C125.323 587.788 125.341 587.582 125.385 587.38L133.9 528.434L135.231 519.249L145.17 450.479L146.489 441.355L160.513 344.401L173.219 256.395L175.366 241.456C175.5 240.559 175.895 239.722 176.501 239.048C177.107 238.375 177.897 237.894 178.774 237.667C179.65 237.439 180.575 237.474 181.431 237.768C182.288 238.062 183.04 238.601 183.593 239.319L189.574 247.006L233.666 303.791L236.046 306.861C236.784 307.818 237.112 309.029 236.959 310.228C236.806 311.428 236.185 312.517 235.23 313.259C235.02 313.419 234.794 313.557 234.555 313.67C233.599 314.179 232.494 314.335 231.434 314.111C230.374 313.886 229.426 313.295 228.758 312.442L225.396 308.144L182.985 253.496L170.955 336.708L169.323 347.975L155.636 442.613L154.311 451.768L144.378 520.538L143.059 529.638L134.618 587.994Z" fill="white" />
    <path d="M736.093 574.056L709.577 510.855L705.995 502.314L661.326 395.942L657.645 387.137L657.529 386.787C657.332 386.333 656.523 383.766 655.253 379.701C655.136 379.357 655.02 378.977 654.909 378.59C652.326 370.202 648.357 356.455 645.155 341.589C642.455 329.217 640.247 316.083 639.872 304.705C639.836 303.441 639.799 302.212 639.799 301.021C639.799 298.418 639.915 295.888 640.142 293.549C640.222 292.978 640.339 292.364 640.412 291.829C643.112 277.959 661.112 266.397 681.578 257.549C684.469 256.321 687.398 255.132 690.363 253.982C715.148 244.409 740.816 238.778 746.056 237.63C746.371 237.552 746.694 237.513 747.019 237.514V246.822C729.755 250.537 707.755 256.818 689.056 264.438C688.789 264.593 688.502 264.711 688.203 264.788C667.13 273.532 650.382 283.97 649.339 294.439C648.026 307.235 650.995 325.582 654.774 342.332C657.627 354.895 660.94 366.543 663.253 374.316C664.829 379.523 665.946 382.974 666.222 383.741L666.872 385.35L669.572 391.705L714.166 497.93L717.749 506.434L742.338 564.956C740.676 568.258 738.576 571.319 736.093 574.056V574.056Z" fill="white" />
    <path d="M314.231 313.167C314.231 312.322 314.465 311.494 314.907 310.774C315.349 310.055 315.981 309.471 316.734 309.089C419.027 256.794 488.278 256.045 528.443 306.793C538.811 319.884 551.406 326.914 565.866 327.67C602.799 329.628 641.031 291.166 641.412 290.779C642.271 289.909 643.437 289.413 644.659 289.398C645.881 289.383 647.06 289.851 647.939 290.7C648.372 291.118 648.717 291.619 648.955 292.172C649.194 292.725 649.32 293.32 649.328 293.922C649.335 294.524 649.223 295.122 648.999 295.681C648.774 296.239 648.441 296.748 648.019 297.178C646.344 298.891 606.529 338.992 565.4 336.825C548.143 335.922 533.265 327.719 521.18 312.448C484.18 265.703 418.684 267.269 320.942 317.231C319.86 317.787 318.603 317.894 317.442 317.53C316.282 317.166 315.311 316.359 314.74 315.285C314.402 314.63 314.228 313.903 314.231 313.167Z" fill="white" />
    <path d="M412.432 276.7C412.438 275.638 412.811 274.611 413.485 273.791C414.16 272.971 415.096 272.408 416.136 272.198C417.176 271.988 418.257 272.142 419.197 272.635C420.137 273.129 420.878 273.931 421.297 274.907L503.216 466.689C503.453 467.245 503.577 467.842 503.581 468.447C503.586 469.051 503.471 469.65 503.243 470.21C503.014 470.769 502.678 471.278 502.252 471.706C501.826 472.135 501.32 472.475 500.762 472.706C499.633 473.181 498.363 473.189 497.228 472.729C496.094 472.269 495.187 471.377 494.707 470.25L412.8 278.487C412.556 277.923 412.431 277.315 412.432 276.7V276.7Z" fill="white" />
    <path d="M585.806 423.788L582.315 415.633L546.886 332.674L546.137 330.924C545.903 330.353 545.781 329.742 545.775 329.125C545.783 328.281 546.014 327.455 546.444 326.73L548.518 323.341L598.02 242.383L603.168 233.946L662.112 137.546L662.995 136.078C663.547 135.149 664.42 134.454 665.449 134.126L670.627 132.376L745.516 106.968C745.996 106.796 746.503 106.709 747.013 106.71V116.123L672.075 141.518L669.983 142.243L664.339 151.453L607.437 244.569L557.395 326.448L555.554 329.518L558.352 336.045L590.566 411.421L594.321 420.214C594.792 421.338 594.798 422.603 594.338 423.731C593.878 424.859 592.989 425.758 591.867 426.231C590.739 426.704 589.47 426.712 588.335 426.255C587.201 425.797 586.292 424.911 585.806 423.788V423.788Z" fill="white" />
    <path d="M430.425 319.743C433.368 318.816 436.211 317.596 438.91 316.102C445.579 312.476 451.222 307.219 455.312 300.821C459.403 294.423 461.807 287.092 462.302 279.512V279.463C462.339 278.554 462.382 277.621 462.382 276.688C462.395 275.958 462.369 275.229 462.302 274.502C462.261 273.039 462.119 271.58 461.879 270.136V270.087C460.567 261.483 456.8 253.44 451.033 246.926C445.265 240.412 437.741 235.702 429.364 233.363H429.327C425.337 232.226 421.206 231.66 417.057 231.68C414.03 231.664 411.008 231.954 408.039 232.546C387.377 236.728 371.732 254.933 371.732 276.688C371.729 279.313 371.961 281.933 372.426 284.517C372.675 285.99 373.009 287.447 373.426 288.882C373.831 290.406 374.348 291.898 374.972 293.346V293.389C378.377 301.766 384.2 308.938 391.695 313.988C399.191 319.038 408.021 321.739 417.057 321.744C421.589 321.757 426.096 321.082 430.425 319.743V319.743ZM383.696 290.387V290.344C383.087 288.894 382.584 287.402 382.192 285.88V285.812C381.802 284.376 381.507 282.915 381.309 281.44C381.075 279.859 380.958 278.262 380.959 276.663C380.959 256.867 397.149 240.799 417.076 240.799C425.344 240.783 433.367 243.613 439.8 248.813C446.232 254.013 450.683 261.269 452.407 269.363V269.406C452.708 270.848 452.912 272.308 453.02 273.777C453.1 274.729 453.137 275.687 453.137 276.688C453.137 277.369 453.137 278.008 453.1 278.647V278.69C452.755 284.61 450.95 290.352 447.845 295.403C444.74 300.455 440.433 304.657 435.309 307.634C432.655 309.205 429.803 310.415 426.83 311.232H426.793C418.305 313.591 409.25 312.775 401.319 308.939C393.388 305.103 387.123 298.508 383.696 290.387V290.387Z" fill="white" />
    <path d="M175.109 466.468C175.11 465.647 175.333 464.841 175.754 464.136C176.176 463.432 176.779 462.854 177.501 462.464L179.618 461.329H179.661L181.354 460.371V460.322C175.173 451.51 166.025 445.225 155.587 442.619L155.318 444.462L154.281 451.787C158.791 453.042 163.007 455.178 166.687 458.073C170.368 460.968 173.438 464.564 175.722 468.654C175.336 467.989 175.125 467.237 175.109 466.468V466.468ZM175.109 466.468C175.11 465.647 175.333 464.841 175.754 464.136C176.176 463.432 176.779 462.854 177.501 462.464L179.618 461.329H179.661L181.354 460.371V460.322C175.173 451.51 166.025 445.225 155.587 442.619L155.318 444.462L154.281 451.787C158.791 453.042 163.007 455.178 166.687 458.073C170.368 460.968 173.438 464.564 175.722 468.654C175.336 467.989 175.125 467.237 175.109 466.468V466.468ZM175.109 466.468C175.11 465.647 175.333 464.841 175.754 464.136C176.176 463.432 176.779 462.854 177.501 462.464L179.618 461.329L181.354 460.371V460.322C175.173 451.51 166.025 445.225 155.587 442.619L155.318 444.462L154.281 451.787C158.791 453.042 163.007 455.178 166.687 458.073C170.368 460.968 173.438 464.564 175.722 468.654C175.336 467.989 175.125 467.237 175.109 466.468V466.468ZM189.256 485.502C189.261 479.638 188.08 473.834 185.784 468.439V468.39C185.191 466.989 184.523 465.622 183.784 464.294C183.317 463.478 182.857 462.655 182.354 461.881C182.047 461.384 181.698 460.88 181.354 460.383V460.334C175.173 451.522 166.025 445.237 155.587 442.632C155.054 442.497 154.508 442.362 153.968 442.269C153.104 442.07 152.229 441.918 151.348 441.815C149.725 441.546 148.085 441.394 146.44 441.361C145.867 441.283 145.289 441.252 144.71 441.269C120.171 441.269 100.195 461.157 100.195 485.478C100.195 506.139 114.533 523.547 133.839 528.397H133.876C136.871 529.125 139.931 529.551 143.011 529.668H144.71C169.311 529.681 189.274 509.885 189.274 485.49L189.256 485.502ZM109.502 485.502C109.502 466.161 125.336 450.46 144.766 450.46H145.189C148.277 450.522 151.345 450.965 154.324 451.781C158.826 453.041 163.035 455.181 166.707 458.077C170.38 460.973 173.444 464.568 175.722 468.654V468.697C178.551 473.84 180.028 479.619 180.017 485.49C180.017 504.832 164.176 520.532 144.753 520.532H144.367C141.278 520.529 138.204 520.102 135.232 519.261C127.849 517.211 121.339 512.801 116.693 506.705C112.047 500.608 109.519 493.158 109.496 485.49L109.502 485.502ZM175.146 466.468C175.147 465.647 175.37 464.841 175.791 464.136C176.212 463.432 176.816 462.854 177.538 462.464L179.655 461.329H179.698L181.391 460.371V460.322C175.21 451.51 166.062 445.225 155.624 442.619L155.354 444.462L154.318 451.787C158.821 453.046 163.03 455.185 166.704 458.08C170.377 460.974 173.442 464.568 175.722 468.654C175.336 467.989 175.125 467.237 175.109 466.468H175.146ZM175.146 466.468C175.147 465.647 175.37 464.841 175.791 464.136C176.212 463.432 176.816 462.854 177.538 462.464L179.655 461.329H179.698L181.391 460.371V460.322C175.21 451.51 166.062 445.225 155.624 442.619L155.354 444.462L154.318 451.787C158.821 453.046 163.03 455.185 166.704 458.08C170.377 460.974 173.442 464.568 175.722 468.654C175.336 467.989 175.125 467.237 175.109 466.468H175.146Z" fill="white" />
    <path d="M377.604 442.257C377.605 441.374 377.862 440.509 378.343 439.769C378.824 439.028 379.509 438.442 380.315 438.082L468.805 398.171C469.357 397.916 469.954 397.773 470.562 397.75C471.169 397.727 471.775 397.824 472.345 398.035C472.915 398.247 473.438 398.569 473.883 398.983C474.328 399.397 474.688 399.895 474.94 400.449C475.19 400.998 475.329 401.591 475.349 402.194C475.369 402.798 475.269 403.399 475.056 403.963C474.843 404.528 474.52 405.044 474.106 405.483C473.693 405.922 473.196 406.275 472.646 406.521L384.156 446.433C383.603 446.686 383.007 446.829 382.399 446.851C381.792 446.874 381.186 446.777 380.617 446.566C380.047 446.354 379.524 446.032 379.079 445.619C378.634 445.205 378.274 444.707 378.021 444.155C377.746 443.56 377.604 442.912 377.604 442.257V442.257Z" fill="white" />
    <path d="M4.5591 565.742C1.67745 560.112 0.183913 553.874 0.203312 547.549V545.541C24.4076 523.403 41.0966 491.714 50.2704 450.473C50.9268 447.489 51.5403 444.425 52.1599 441.262C53.5096 433.986 54.663 426.477 55.5894 418.667C56.4728 411.157 57.1292 403.685 57.5157 396.372V396.335C57.8225 391.165 58.0556 386.069 58.1292 381.052C58.209 377.945 58.2458 374.844 58.2458 371.842C58.2458 369.926 58.2458 368.053 58.209 366.211C57.9064 340.778 55.7163 315.403 51.6569 290.294C50.8103 285.315 50.2704 282.484 50.2336 282.367C49.9919 281.18 49.9863 279.956 50.2171 278.766C50.448 277.576 50.9107 276.443 51.579 275.433C52.2472 274.422 53.1078 273.552 54.1117 272.874C55.1156 272.196 56.2431 271.723 57.4298 271.481C58.6166 271.239 59.8393 271.233 61.0281 271.465C62.217 271.696 63.3488 272.159 64.3588 272.827C65.3689 273.496 66.2374 274.358 66.9148 275.362C67.5923 276.367 68.0654 277.496 68.307 278.683C68.4236 279.254 69.1169 282.625 70.0432 288.299C73.8062 311.307 75.9811 334.547 76.5524 357.855C76.7855 365.438 76.8223 373.408 76.6321 381.568C76.3254 394.204 75.5156 407.418 73.9328 420.828C66.1353 486.491 42.5097 535.446 4.5591 565.742Z" fill="white" />
    <path d="M10.5207 196.651L0.189453 234.689V199.445L1.34895 195.147L32.5266 80.0554L33.3364 77.1081C33.5365 76.3823 33.9121 75.717 34.4299 75.1709C34.9478 74.6247 35.592 74.2146 36.3057 73.9766L38.6554 73.1723L96.6611 53.5974L169.157 29.1105L178.482 25.9729C179.054 25.7777 179.658 25.6971 180.26 25.7356C180.862 25.7741 181.451 25.931 181.993 26.1972C182.535 26.4635 183.019 26.834 183.418 27.2875C183.816 27.741 184.122 28.2686 184.317 28.8403C184.512 29.412 184.592 30.0165 184.554 30.6194C184.515 31.2222 184.359 31.8116 184.093 32.3538C183.827 32.8961 183.456 33.3805 183.003 33.7796C182.55 34.1786 182.023 34.4845 181.452 34.6796L173.2 37.4734L101.784 61.5551L47.5019 79.865L41.6431 81.8544L40.4836 86.1096L10.5207 196.651Z" fill="white" />
    <path d="M28.712 375.913C22.8848 373.597 17.4104 370.477 12.4483 366.641C7.85628 363.083 3.73347 358.957 0.178465 354.361C0.0922281 354.305 0.0257067 354.223 -0.0117188 354.127L0.178465 353.022V337.494C0.528155 338.108 0.834901 338.722 1.18459 339.336C1.33543 339.613 1.50132 339.881 1.68152 340.14C1.68375 340.211 1.71215 340.279 1.76127 340.331C5.86416 347.694 11.3932 354.165 18.0249 359.365C25.9997 365.482 35.3835 369.494 45.3131 371.031C49.5727 371.706 53.8853 371.988 58.1964 371.873C60.9865 371.808 63.7685 371.546 66.5215 371.087C67.1176 370.94 67.7372 370.914 68.3434 371.012C68.9496 371.109 69.53 371.328 70.05 371.654C70.57 371.981 71.019 372.409 71.3703 372.913C71.7216 373.417 71.968 373.987 72.0948 374.588C72.2217 375.189 72.2263 375.81 72.1085 376.413C71.9907 377.016 71.7529 377.589 71.4092 378.098C71.0654 378.607 70.6229 379.042 70.1078 379.377C69.5927 379.711 69.0157 379.938 68.411 380.045C65.0178 380.696 61.5716 381.031 58.1166 381.046C48.0706 381.322 38.0715 379.576 28.712 375.913V375.913Z" fill="white" />
    <path d="M60.6245 450.448H0.189453V441.238H60.6245C61.8449 441.238 63.0152 441.723 63.8781 442.587C64.741 443.45 65.2257 444.622 65.2257 445.843C65.2257 447.064 64.741 448.236 63.8781 449.099C63.0152 449.963 61.8449 450.448 60.6245 450.448V450.448Z" fill="white" />
    <path d="M682.166 261.153L681.553 257.531L664.32 151.496L662.068 137.583L652.7 79.9755L651.074 69.9487L643.258 21.9081L641.786 12.7776L639.817 0.742935C639.788 0.50446 639.772 0.264682 639.768 0.0245361H649.08L651.59 15.5837L670.608 132.412L672.08 141.567L690.35 253.975L691.282 259.71C691.477 260.919 691.183 262.156 690.467 263.149C689.75 264.142 688.669 264.808 687.46 265.003C686.252 265.198 685.016 264.904 684.025 264.187C683.033 263.469 682.367 262.387 682.172 261.178L682.166 261.153Z" fill="white" />
    <path d="M190.041 69.6048C190.052 67.6525 190.682 65.754 191.841 64.1835C193 62.613 194.628 61.4518 196.489 60.8674C197.538 60.5358 301.697 29.0368 341.819 126.739C381.941 224.441 297.979 268.165 297.126 268.577C294.946 269.679 292.418 269.874 290.095 269.12C287.771 268.365 285.84 266.722 284.721 264.549C284.173 263.474 283.842 262.301 283.749 261.098C283.656 259.895 283.802 258.686 284.178 257.539C284.555 256.393 285.154 255.333 285.943 254.42C286.731 253.506 287.692 252.759 288.77 252.219C291.598 250.77 358.334 215.464 324.733 133.647C310.58 99.182 285.789 79.3984 251.059 74.8547C224.568 71.3916 202.28 78.2625 202.059 78.3361C199.732 79.0725 197.208 78.8576 195.038 77.7383C192.868 76.6191 191.228 74.6863 190.477 72.3618C190.19 71.4707 190.043 70.5408 190.041 69.6048Z" fill="white" />
    <path d="M331.795 138.479C331.795 137.798 331.947 137.127 332.24 136.512C332.533 135.898 332.959 135.358 333.488 134.93C334.433 134.157 335.644 133.788 336.859 133.903C338.075 134.018 339.195 134.608 339.979 135.544L417.892 230.035L653.473 68.254C654.481 67.5639 655.72 67.2993 656.921 67.5177C658.123 67.7361 659.19 68.4199 659.89 69.4206C660.235 69.9154 660.478 70.4738 660.606 71.0633C660.734 71.6528 660.744 72.2619 660.635 72.8552C660.526 73.4485 660.3 74.0143 659.971 74.5198C659.642 75.0253 659.217 75.4605 658.719 75.8003L419.671 240.006C418.719 240.662 417.555 240.938 416.41 240.779C415.264 240.62 414.22 240.038 413.481 239.147L332.844 141.383C332.165 140.568 331.794 139.54 331.795 138.479V138.479Z" fill="white" />
    <path d="M531.965 154.149C531.962 153.433 532.128 152.727 532.447 152.088C532.767 151.448 533.232 150.892 533.805 150.465C534.783 149.73 536.011 149.412 537.221 149.579C538.432 149.745 539.528 150.384 540.272 151.355L607.253 239.3C607.618 239.781 607.884 240.328 608.036 240.912C608.189 241.496 608.225 242.104 608.141 242.701C608.058 243.299 607.858 243.874 607.551 244.394C607.245 244.913 606.839 245.367 606.357 245.729C605.379 246.462 604.152 246.779 602.941 246.613C601.731 246.446 600.635 245.809 599.891 244.839L532.904 156.912C532.295 156.119 531.965 155.148 531.965 154.149V154.149Z" fill="white" />
    <path d="M596.123 68.0698C596.123 57.7625 598.434 48.5523 603.055 40.4391C616.675 16.5969 645.135 11.9365 646.337 11.7523C646.94 11.6378 647.56 11.6456 648.16 11.7754C648.76 11.9052 649.327 12.1543 649.829 12.5078C650.331 12.8613 650.757 13.3122 651.081 13.8335C651.406 14.3549 651.623 14.9362 651.718 15.5429C651.814 16.1496 651.787 16.7694 651.639 17.3655C651.491 17.9616 651.225 18.5218 650.856 19.013C650.488 19.5041 650.024 19.9162 649.494 20.2247C648.963 20.5332 648.376 20.7319 647.767 20.809C647.485 20.8581 622.399 25.0641 611.043 45.0319C602.798 59.535 603.522 78.9563 613.19 102.749C613.417 103.309 613.53 103.907 613.524 104.511C613.518 105.114 613.393 105.71 613.155 106.265C612.918 106.82 612.574 107.322 612.142 107.743C611.71 108.164 611.199 108.495 610.638 108.718C609.505 109.172 608.239 109.161 607.114 108.686C605.989 108.211 605.097 107.311 604.632 106.182C598.957 92.2252 596.123 79.5028 596.123 68.0698Z" fill="white" />
    <path d="M575.143 125.628L574.42 122.558L564.174 78.8887L562.052 69.9118L556.702 46.9599L554.604 37.9585L545.88 1.02541C545.786 0.691996 545.742 0.346332 545.751 0H555.119L564.512 40.0154C564.512 40.1198 564.512 40.1935 564.561 40.2733L582.573 116.958L584.125 123.515C584.349 124.44 584.277 125.412 583.919 126.293C583.562 127.175 582.936 127.921 582.131 128.428C581.685 128.709 581.196 128.916 580.683 129.042C579.497 129.32 578.248 129.118 577.21 128.478C576.172 127.839 575.429 126.814 575.143 125.628V125.628Z" fill="white" />
    <path d="M447.836 159.503C447.836 150.342 459.713 142.967 471.253 135.802C481.069 129.711 493.259 122.128 491.799 116.62C486.425 96.4865 545.357 75.4196 563.547 69.4452C564.118 69.2549 564.721 69.1791 565.321 69.222C565.922 69.265 566.508 69.4259 567.046 69.6956C567.585 69.9653 568.065 70.3385 568.459 70.7938C568.853 71.2492 569.154 71.7778 569.344 72.3495C569.534 72.9212 569.61 73.5248 569.567 74.1258C569.524 74.7268 569.363 75.3134 569.094 75.8522C568.824 76.391 568.452 76.8714 567.997 77.266C567.542 77.6606 567.014 77.9616 566.442 78.1519C529.535 90.2788 498.866 107.17 500.719 114.268C503.934 126.328 489.805 135.096 476.142 143.581C467.406 149.003 455.425 156.439 457.382 160.67C464.449 176.02 476.369 195.539 476.492 195.736C476.806 196.251 477.016 196.822 477.108 197.418C477.201 198.014 477.174 198.623 477.03 199.208C476.887 199.794 476.628 200.345 476.271 200.831C475.913 201.316 475.463 201.725 474.946 202.036C473.902 202.67 472.65 202.865 471.463 202.578C470.275 202.292 469.25 201.547 468.609 200.507C468.106 199.69 456.29 180.355 448.977 164.476C448.238 162.922 447.849 161.224 447.836 159.503Z" fill="white" />
    <path d="M265.531 70.3846L263.488 58.6262L253.476 0.785952C253.422 0.533736 253.395 0.276401 253.397 0.0184326H262.685L273.268 61.156L274.617 68.8435C274.821 70.0526 274.537 71.2934 273.827 72.2929C273.118 73.2924 272.04 73.9688 270.832 74.1731C269.624 74.3775 268.384 74.0932 267.385 73.3827C266.387 72.6722 265.711 71.5938 265.507 70.3846H265.531Z" fill="white" />
    <path d="M292.286 84.6359C291.735 83.8611 291.437 82.9345 291.434 81.9834C291.432 81.2456 291.61 80.5186 291.952 79.865C292.294 79.2115 292.79 78.6509 293.397 78.2318L299.998 73.5775L366.58 26.7957C366.769 26.6222 366.974 26.4679 367.194 26.3351L404.666 0H417.291C417.286 0.733144 417.105 1.4543 416.763 2.10286C416.422 2.75142 415.93 3.30843 415.328 3.72708L380.016 28.5947L370.537 35.2322L307.814 79.3124L298.679 85.7105C297.686 86.407 296.459 86.6848 295.263 86.4837C294.067 86.2827 292.998 85.619 292.286 84.6359V84.6359Z" fill="white" />
    <path d="M324.126 120.323C324.128 119.366 324.429 118.434 324.987 117.657C325.545 116.879 326.331 116.296 327.236 115.988L558.486 36.6506C559.64 36.2519 560.905 36.3264 562.005 36.8579C563.105 37.3893 563.95 38.3346 564.357 39.4874C564.553 40.0578 564.636 40.6614 564.598 41.2637C564.561 41.8659 564.405 42.4548 564.139 42.9964C563.873 43.538 563.503 44.0217 563.05 44.4195C562.597 44.8173 562.069 45.1215 561.498 45.3144L330.248 124.658C329.555 124.901 328.813 124.976 328.085 124.874C327.357 124.773 326.664 124.498 326.063 124.074C325.463 123.65 324.973 123.088 324.633 122.435C324.294 121.783 324.116 121.058 324.113 120.323H324.126Z" fill="white" />
    <path d="M364.947 30.3078C364.95 30.0631 364.97 29.8188 365.009 29.5771C365.207 28.3754 365.873 27.3013 366.86 26.5892C367.848 25.877 369.077 25.5849 370.279 25.7764C371.174 25.9176 392.303 29.4236 404.174 47.4327C412.438 59.9648 414.063 76.1257 409.008 95.4672C408.679 96.6254 407.91 97.609 406.866 98.2081C405.822 98.8072 404.586 98.9743 403.421 98.674C402.255 98.3736 401.253 97.6294 400.629 96.6002C400.004 95.571 399.805 94.3381 400.076 93.1646C404.432 76.4757 403.235 62.8015 396.511 52.5352C386.935 37.9277 369.002 34.8638 368.825 34.8331C367.747 34.6613 366.766 34.112 366.056 33.2831C365.345 32.4542 364.953 31.3997 364.947 30.3078V30.3078Z" fill="white" />
    <path d="M477.333 68.997L476.217 64.8585L459.112 1.17891C459.01 0.794304 458.959 0.397979 458.959 0H468.358L484.996 61.8744L486.29 66.633C486.563 67.681 486.457 68.7917 485.993 69.7698C485.528 70.7479 484.734 71.5308 483.75 71.9811C483.506 72.0817 483.256 72.1678 483.002 72.239C482.417 72.4024 481.805 72.4481 481.203 72.3733C480.6 72.2984 480.018 72.1046 479.491 71.8031C478.963 71.5015 478.501 71.0982 478.131 70.6165C477.76 70.1348 477.489 69.5843 477.333 68.997V68.997Z" fill="white" />
  </g>
  <defs>
    <clipPath id="clip0_1044_23731">
      <rect width="747" height="588" fill="white" />
    </clipPath>
  </defs>
</svg>